<svg width="67" height="67" viewBox="0 0 67 67" fill="none" xmlns="http://www.w3.org/2000/svg">
<path fill-rule="evenodd" clip-rule="evenodd" d="M33.5 67C52.0016 67 67 52.0016 67 33.5C67 14.9984 52.0016 0 33.5 0C14.9984 0 0 14.9984 0 33.5C0 52.0016 14.9984 67 33.5 67ZM33.5 9.77075C37.3829 9.77075 40.5597 12.9476 40.5597 16.8305V34.6978C40.5597 38.5806 37.3829 41.7575 33.5 41.7575C29.6171 41.7575 26.4403 38.5806 26.4403 34.6978V16.8305C26.4403 12.9476 29.6171 9.77075 33.5 9.77075ZM35.7332 57.2291C35.7332 58.4625 34.7333 59.4624 33.4999 59.4624C32.2665 59.4624 31.2666 58.4625 31.2666 57.2291V50.8323C27.674 50.3348 24.447 48.6555 21.9947 46.203C19.0436 43.2519 17.2118 39.1794 17.2118 34.6978V30.4846C17.2118 29.2511 18.2117 28.2512 19.4452 28.2512C20.6787 28.2512 21.6786 29.2511 21.6786 30.4846V34.6978C21.6786 37.9463 23.0091 40.9013 25.1529 43.045C27.2966 45.1888 30.2515 46.5193 33.5 46.5193C36.7486 46.5193 39.7037 45.1888 41.8473 43.045C43.9909 40.9013 45.3216 37.9463 45.3216 34.6978V30.4846C45.3216 29.2511 46.3215 28.2512 47.555 28.2512C48.7884 28.2512 49.7882 29.2511 49.7882 30.4846V34.6978C49.7882 39.1794 47.9564 43.2519 45.0053 46.203C42.5528 48.6555 39.3257 50.3347 35.7332 50.8323V57.2291Z" fill="#199CFF"/>
</svg>
