<svg width="16" height="16" viewBox="0 0 16 16" fill="none" xmlns="http://www.w3.org/2000/svg">
<path fill-rule="evenodd" clip-rule="evenodd" d="M2.01247 3.67533e-05C1.91786 0.00143183 1.82756 0.0396076 1.76073 0.106568L0.106564 1.76073H0.106437C-0.0354792 1.90277 -0.0354792 2.13297 0.106437 2.27501L5.83265 7.99895L0.106437 13.7252C-0.0354792 13.8671 -0.0354792 14.0973 0.106437 14.2393L1.7606 15.8935H1.76073C1.90264 16.0355 2.13296 16.0355 2.27501 15.8935L7.99894 10.1673L13.7252 15.8935H13.725C13.8671 16.0354 14.0973 16.0354 14.2392 15.8935L15.8933 14.2393H15.8935C16.0354 14.0973 16.0354 13.8671 15.8935 13.7252L10.1673 7.99895L15.8935 2.27501C16.0354 2.13297 16.0354 1.90277 15.8935 1.76073L14.2393 0.106568H14.2392C14.0973 -0.0353491 13.8671 -0.0353491 13.725 0.106568L7.99882 5.83278L2.27488 0.106568H2.27501C2.20551 0.0370687 2.11077 -0.00135933 2.01248 3.67533e-05H2.01247Z" fill="#E95370"/>
</svg>
