<svg width="41" height="41" viewBox="0 0 41 41" fill="none" xmlns="http://www.w3.org/2000/svg">
<path d="M20.5 0C9.19561 0 0 9.19649 0 20.5C0 31.8035 9.19561 41 20.5 41C31.8044 41 41 31.8035 41 20.5C41 9.19649 31.8044 0 20.5 0ZM28.6496 21.2182L16.6913 28.9057C16.5512 28.9966 16.3894 29.0417 16.2292 29.0417C16.0891 29.0417 15.9472 29.0066 15.8205 28.9374C15.5452 28.7873 15.375 28.5003 15.375 28.1875V12.8125C15.375 12.4997 15.5452 12.2127 15.8205 12.0626C16.0907 11.9141 16.4294 11.9232 16.6913 12.0943L28.6496 19.7818C28.8932 19.9386 29.0417 20.2097 29.0417 20.5C29.0417 20.7903 28.8932 21.0613 28.6496 21.2182Z" fill="#199CFF"/>
</svg>
