<svg width="200" height="40" viewBox="0 0 200 40" fill="none" xmlns="http://www.w3.org/2000/svg">
<g clip-path="url(#clip0_21_471)">
<path d="M0.910828 16.1846V23.8154" stroke="#199CFF" stroke-width="2" stroke-miterlimit="10" stroke-linecap="round"/>
<path d="M4.01675 21.3847V18.6157" stroke="#199CFF" stroke-width="2" stroke-miterlimit="10" stroke-linecap="round"/>
<path d="M7.12268 21.0374V18.9629" stroke="#199CFF" stroke-width="2" stroke-miterlimit="10" stroke-linecap="round"/>
<path d="M34.9212 21.0374V18.9629" stroke="#199CFF" stroke-width="2" stroke-miterlimit="10" stroke-linecap="round"/>
<path d="M10.2286 20.69V19.3101" stroke="#199CFF" stroke-width="2" stroke-miterlimit="10" stroke-linecap="round"/>
<path d="M13.3345 23.9528V16.0479" stroke="#199CFF" stroke-width="2" stroke-miterlimit="10" stroke-linecap="round"/>
<path d="M16.4405 27.9829V12.0176" stroke="#199CFF" stroke-width="2" stroke-miterlimit="10" stroke-linecap="round"/>
<path d="M19.5464 37.35V2.65039" stroke="#199CFF" stroke-width="2" stroke-miterlimit="10" stroke-linecap="round"/>
<path d="M22.6523 26.5939V13.4067" stroke="#199CFF" stroke-width="2" stroke-miterlimit="10" stroke-linecap="round"/>
<path d="M25.7583 23.4685V16.5322" stroke="#199CFF" stroke-width="2" stroke-miterlimit="10" stroke-linecap="round"/>
<path d="M28.8551 26.5939V13.4067" stroke="#199CFF" stroke-width="2" stroke-miterlimit="10" stroke-linecap="round"/>
<path d="M31.961 22.0795V17.9214" stroke="#199CFF" stroke-width="2" stroke-miterlimit="10" stroke-linecap="round"/>
<path d="M38.1729 22.0795V17.9214" stroke="#199CFF" stroke-width="2" stroke-miterlimit="10" stroke-linecap="round"/>
<path d="M41.2788 26.2465V13.7539" stroke="#199CFF" stroke-width="2" stroke-miterlimit="10" stroke-linecap="round"/>
<path d="M63.166 21.924V18.0767" stroke="#199CFF" stroke-width="2" stroke-miterlimit="10" stroke-linecap="round"/>
<path d="M66.4177 23.8523V16.1484" stroke="#199CFF" stroke-width="2" stroke-miterlimit="10" stroke-linecap="round"/>
<path d="M69.5236 19.356V20.6445" stroke="#199CFF" stroke-width="2" stroke-miterlimit="10" stroke-linecap="round"/>
<path d="M44.3847 31.4556V8.54492" stroke="#199CFF" stroke-width="2" stroke-miterlimit="10" stroke-linecap="round"/>
<path d="M47.4907 24.5101V15.4902" stroke="#199CFF" stroke-width="2" stroke-miterlimit="10" stroke-linecap="round"/>
<path d="M50.5966 22.0795V17.9214" stroke="#199CFF" stroke-width="2" stroke-miterlimit="10" stroke-linecap="round"/>
<path d="M53.7025 21.0374V18.9629" stroke="#199CFF" stroke-width="2" stroke-miterlimit="10" stroke-linecap="round"/>
<path d="M72.7662 23.8523V16.1484" stroke="#199CFF" stroke-width="2" stroke-miterlimit="10" stroke-linecap="round"/>
<path d="M75.863 31.5651V8.43506" stroke="#199CFF" stroke-width="2" stroke-miterlimit="10" stroke-linecap="round"/>
<path d="M78.9689 33.8772V6.12305" stroke="#199CFF" stroke-width="2" stroke-miterlimit="10" stroke-linecap="round"/>
<path d="M82.0749 39.0863V0.914062" stroke="#199CFF" stroke-width="2" stroke-miterlimit="10" stroke-linecap="round"/>
<path d="M85.1808 33.8772V6.12305" stroke="#199CFF" stroke-width="2" stroke-miterlimit="10" stroke-linecap="round"/>
<path d="M88.2867 10.1714V29.8287" stroke="#199CFF" stroke-width="2" stroke-miterlimit="10" stroke-linecap="round"/>
<path d="M56.8084 26.2465V13.7539" stroke="#199CFF" stroke-width="2" stroke-miterlimit="10" stroke-linecap="round"/>
<path d="M59.9144 22.7737V17.2266" stroke="#199CFF" stroke-width="2" stroke-miterlimit="10" stroke-linecap="round"/>
<path d="M91.9847 12.9316V27.0692" stroke="#199CFF" stroke-width="2" stroke-miterlimit="10" stroke-linecap="round"/>
<path d="M95.0906 15.3716V24.6291" stroke="#199CFF" stroke-width="2" stroke-miterlimit="10" stroke-linecap="round"/>
<path d="M98.1966 21.0374V18.9629" stroke="#199CFF" stroke-width="2" stroke-miterlimit="10" stroke-linecap="round"/>
<path d="M125.995 23.4685V16.5322" stroke="#199CFF" stroke-width="2" stroke-miterlimit="10" stroke-linecap="round"/>
<path d="M101.302 20.69V19.3101" stroke="#199CFF" stroke-width="2" stroke-miterlimit="10" stroke-linecap="round"/>
<path d="M195.619 18.9629V21.0374" stroke="#199CFF" stroke-width="2" stroke-miterlimit="10" stroke-linecap="round"/>
<path d="M191.921 15.4902V24.5101" stroke="#199CFF" stroke-width="2" stroke-miterlimit="10" stroke-linecap="round"/>
<path d="M185.709 18.9629V21.0374" stroke="#199CFF" stroke-width="2" stroke-miterlimit="10" stroke-linecap="round"/>
<path d="M104.408 23.9528V16.0479" stroke="#199CFF" stroke-width="2" stroke-miterlimit="10" stroke-linecap="round"/>
<path d="M107.514 27.9829V12.0176" stroke="#199CFF" stroke-width="2" stroke-miterlimit="10" stroke-linecap="round"/>
<path d="M110.62 24.5101V15.4902" stroke="#199CFF" stroke-width="2" stroke-miterlimit="10" stroke-linecap="round"/>
<path d="M113.726 26.5939V13.4067" stroke="#199CFF" stroke-width="2" stroke-miterlimit="10" stroke-linecap="round"/>
<path d="M116.832 31.4556V8.54492" stroke="#199CFF" stroke-width="2" stroke-miterlimit="10" stroke-linecap="round"/>
<path d="M119.938 30.0666V9.93408" stroke="#199CFF" stroke-width="2" stroke-miterlimit="10" stroke-linecap="round"/>
<path d="M123.044 27.9829V12.0176" stroke="#199CFF" stroke-width="2" stroke-miterlimit="10" stroke-linecap="round"/>
<path d="M129.256 30.0666V9.93408" stroke="#199CFF" stroke-width="2" stroke-miterlimit="10" stroke-linecap="round"/>
<path d="M132.362 33.8772V6.12305" stroke="#199CFF" stroke-width="2" stroke-miterlimit="10" stroke-linecap="round"/>
<path d="M154.249 21.0374V18.9629" stroke="#199CFF" stroke-width="2" stroke-miterlimit="10" stroke-linecap="round"/>
<path d="M157.501 22.0795V17.9214" stroke="#199CFF" stroke-width="2" stroke-miterlimit="10" stroke-linecap="round"/>
<path d="M160.607 19.6577V20.3431" stroke="#199CFF" stroke-width="2" stroke-miterlimit="10" stroke-linecap="round"/>
<path d="M199.089 19.6577V20.3431" stroke="#199CFF" stroke-width="2" stroke-miterlimit="10" stroke-linecap="round"/>
<path d="M188.715 22.0795V17.9214" stroke="#199CFF" stroke-width="2" stroke-miterlimit="10" stroke-linecap="round"/>
<path d="M182.366 19.6577V20.3431" stroke="#199CFF" stroke-width="2" stroke-miterlimit="10" stroke-linecap="round"/>
<path d="M135.468 39.0863V0.914062" stroke="#199CFF" stroke-width="2" stroke-miterlimit="10" stroke-linecap="round"/>
<path d="M138.574 30.0666V9.93408" stroke="#199CFF" stroke-width="2" stroke-miterlimit="10" stroke-linecap="round"/>
<path d="M141.68 26.2465V13.7539" stroke="#199CFF" stroke-width="2" stroke-miterlimit="10" stroke-linecap="round"/>
<path d="M144.776 22.7737V17.2266" stroke="#199CFF" stroke-width="2" stroke-miterlimit="10" stroke-linecap="round"/>
<path d="M163.84 22.0795V17.9214" stroke="#199CFF" stroke-width="2" stroke-miterlimit="10" stroke-linecap="round"/>
<path d="M166.946 26.2465V13.7539" stroke="#199CFF" stroke-width="2" stroke-miterlimit="10" stroke-linecap="round"/>
<path d="M170.052 22.4264V17.5737" stroke="#199CFF" stroke-width="2" stroke-miterlimit="10" stroke-linecap="round"/>
<path d="M173.158 24.5101V15.4902" stroke="#199CFF" stroke-width="2" stroke-miterlimit="10" stroke-linecap="round"/>
<path d="M176.264 22.0795V17.9214" stroke="#199CFF" stroke-width="2" stroke-miterlimit="10" stroke-linecap="round"/>
<path d="M179.37 21.0374V18.9629" stroke="#199CFF" stroke-width="2" stroke-miterlimit="10" stroke-linecap="round"/>
<path d="M147.882 26.2465V13.7539" stroke="#199CFF" stroke-width="2" stroke-miterlimit="10" stroke-linecap="round"/>
<path d="M150.988 22.7737V17.2266" stroke="#199CFF" stroke-width="2" stroke-miterlimit="10" stroke-linecap="round"/>
</g>
<defs>
<clipPath id="clip0_21_471">
<rect width="200" height="40" fill="white"/>
</clipPath>
</defs>
</svg>
