<svg width="50" height="50" viewBox="0 0 50 50" fill="none" xmlns="http://www.w3.org/2000/svg">
<rect width="50" height="50" rx="3" fill="#FEEFF4"/>
<path fill-rule="evenodd" clip-rule="evenodd" d="M28.0238 19.4825C27.5228 19.4825 27.1173 19.0766 27.1173 18.576V11.0004H16.1104C15.497 11.0004 15 11.497 15 12.1115V37.1535C15 37.7672 15.4989 38.2646 16.1146 38.2646H34.485C35.1006 38.2646 35.5997 37.764 35.5997 37.1505V19.4823L28.0238 19.4825ZM30.4224 23.2487C30.6572 23.014 31.0373 23.0138 31.2711 23.2475L32.1377 24.1139C32.3716 24.3478 32.3725 24.726 32.1362 24.9625L31.7113 25.3875L29.9975 23.6739L30.4224 23.2487ZM23.8774 29.7938L25.5911 31.5075L23.5452 32.2676C23.1691 32.4075 22.9785 32.2133 23.1173 31.8397L23.8774 29.7938ZM29.4877 24.1835L31.2014 25.8973L26.1012 30.9973L24.3877 29.2837L29.4877 24.1835ZM18.0296 32.8118H22.2706V34.0234H18.0296V32.8118ZM35.5999 18.2708H28.937C28.6016 18.2708 28.3296 17.9991 28.3296 17.6635V11L35.5999 18.2708Z" fill="#E8D1D9"/>
</svg>
