<svg width="50" height="50" viewBox="0 0 50 50" fill="none" xmlns="http://www.w3.org/2000/svg">
<rect width="50" height="50" rx="3" fill="#E7E9F5"/>
<path d="M27.5861 26.4825H28.6206C28.906 26.4825 29.1378 26.2506 29.1378 25.9652C29.1378 25.6798 28.906 25.448 28.6206 25.448H27.5861C26.7694 25.448 26.1052 24.8118 26.0456 24.0101L24.0972 25.9585C24.5606 27.7751 26.2029 29.0687 28.1033 29.0687C30.385 29.0687 32.2413 27.2124 32.2413 24.9307C32.2413 23.0307 30.9477 21.388 29.1311 20.9246L28.2285 21.8272H28.6206V22.3445C29.4761 22.3445 30.1723 23.0407 30.1723 23.8962H29.1378C29.1378 23.6108 28.906 23.379 28.6206 23.379H27.5861C27.3007 23.379 27.0688 23.6108 27.0688 23.8962C27.0688 24.1816 27.3007 24.4135 27.5861 24.4135H28.6206C29.4761 24.4135 30.1723 25.1097 30.1723 25.9652C30.1723 26.8208 29.4761 27.5169 28.6206 27.5169V28.0342H27.5861V27.5169C26.7305 27.5169 26.0343 26.8208 26.0343 25.9652H27.0688C27.0688 26.2506 27.3007 26.4825 27.5861 26.4825H27.5861Z" fill="#ADB3D5"/>
<path d="M22.9309 36.8274C20.1532 36.8274 17.4496 35.8488 15.3188 34.0715L14.8837 33.7094L31.7087 16.885L32.0713 17.3184C32.1722 17.4385 32.2661 17.565 32.362 17.6897H33.6438C31.2499 14.1595 27.2258 12 22.9312 12C15.8008 12 10 17.801 10 24.9312C10 32.0615 15.801 37.8623 22.9312 37.8623C27.2259 37.8623 31.2503 35.7029 33.6438 32.1726H32.3645C30.1191 35.0902 26.6159 36.8276 22.9311 36.8276L22.9309 36.8274ZM13.7901 32.543C12.0127 30.4119 11.0341 27.7082 11.0341 24.9309C11.0341 18.3705 16.3705 13.0342 22.9308 13.0342C25.7084 13.0342 28.412 14.0129 30.5429 15.7902L30.9779 16.1523L14.1517 32.9785L13.7901 32.543Z" fill="#ADB3D5"/>
<path d="M31.02 32.1722H17.8837L16.4271 33.6289C18.297 35.028 20.5847 35.793 22.9308 35.793C26.0204 35.793 28.9705 34.4543 31.0199 32.1722H31.02Z" fill="#ADB3D5"/>
<path d="M31.3321 18.7238L29.9557 20.1002C31.924 20.8532 33.276 22.7588 33.276 24.9307C33.276 27.7827 30.9555 30.1032 28.1035 30.1032C25.9311 30.1032 24.026 28.7512 23.273 26.7829L18.9182 31.1377H40V18.7238H31.3321ZM38.9655 30.1032H36.3793V29.0687H37.931V27.517H38.9655V30.1032ZM38.9655 22.3445H37.931V20.7927H36.3793V19.7582H38.9655V22.3445Z" fill="#ADB3D5"/>
<path d="M12.0687 24.9307C12.0687 27.277 12.8337 29.5647 14.2328 31.4344L15.1721 30.4951V17.6892H27.978L29.4346 16.2326C27.5647 14.8335 25.277 14.0685 22.9309 14.0685C16.9415 14.0685 12.0687 18.9415 12.0687 24.9307L12.0687 24.9307Z" fill="#ADB3D5"/>
<path d="M16.2066 29.4612L26.9435 18.7244H16.2066V29.4612ZM17.2411 19.7589H19.8274V20.7934H18.2756V22.3451H17.2411V19.7589Z" fill="#ADB3D5"/>
</svg>
