<svg width="50" height="50" viewBox="0 0 50 50" fill="none" xmlns="http://www.w3.org/2000/svg">
<rect width="50" height="50" rx="3" fill="#FFEAE4"/>
<path d="M25.0812 34.2914V32.5407C24.282 32.4645 23.6349 32.2742 23.1402 31.9698C22.6455 31.7033 22.2269 31.2467 21.8462 30.5997C21.5038 29.9908 21.2753 29.2297 21.2373 28.3163L22.8358 27.9739C22.9501 28.9252 23.1783 29.6104 23.4827 30.0291C23.9394 30.6759 24.4723 31.0186 25.0812 31.0947V25.6143C24.4343 25.4241 23.7492 25.1196 23.0641 24.7009C22.5694 24.3965 22.1887 23.9398 21.9222 23.4069C21.6178 22.836 21.5036 22.2271 21.5036 21.542C21.5036 20.2862 21.8842 19.2586 22.6834 18.4975C23.2163 18.0028 24.0154 17.6601 25.081 17.5461V16.7087H26.0323V17.5461C26.9457 17.6603 27.6688 17.9648 28.2397 18.4595C28.9248 19.0684 29.3433 19.9437 29.4575 21.0855L27.859 21.352C27.7448 20.6669 27.5546 20.1342 27.2501 19.7535C26.9457 19.3728 26.565 19.1446 26.0323 19.0304V24.054C26.8315 24.2825 27.3644 24.4727 27.6308 24.5869C28.1255 24.8154 28.5062 25.1198 28.8106 25.4623C29.1531 25.8047 29.3815 26.2234 29.5337 26.6801C29.724 27.1368 29.8002 27.6697 29.8002 28.2023C29.8002 29.4201 29.4577 30.4477 28.7346 31.2469C28.0495 32.046 27.1361 32.4647 26.0325 32.5409V34.2916H25.0812L25.0812 34.2914ZM17.0132 15.0724C16.7087 15.3008 16.4423 15.567 16.1758 15.8335C15.9094 16.1 15.6811 16.3664 15.4147 16.6327L14.1206 15.5671C14.3871 15.2626 14.6916 14.9202 14.996 14.6157C15.3005 14.3493 15.6049 14.0448 15.9473 13.7784L17.0129 15.0724H17.0132ZM21.0473 11.7231C21.7324 11.4947 22.4936 11.3045 23.2547 11.1902C24.0159 11.076 24.777 11 25.5001 11C29.4962 11 33.1496 12.6365 35.7756 15.2626C38.4017 17.8886 40 21.5041 40 25.5001C40 29.4961 38.4015 33.1496 35.7756 35.7756C33.1496 38.4017 29.5341 40 25.5001 40C21.504 40 17.8886 38.4015 15.2626 35.7756C12.6365 33.1496 11 29.5341 11 25.5001H12.7127C12.7127 29.0395 14.1208 32.2361 16.4424 34.5582C18.764 36.8798 21.9608 38.3258 25.5005 38.3258C29.0402 38.3258 32.2365 36.8796 34.5585 34.5582C36.8802 32.2366 38.3262 29.0398 38.3262 25.5001C38.3262 21.9604 36.8799 18.7641 34.5585 16.442C32.2369 14.1204 29.0402 12.7124 25.5005 12.7124C24.8153 12.7124 24.1684 12.7504 23.5215 12.8646C22.8364 12.9788 22.1895 13.1311 21.5426 13.3213L21.0479 11.7228L21.0473 11.7231ZM25.0814 18.9922C24.4725 19.1064 23.9778 19.3728 23.6351 19.8295C23.2545 20.2482 23.1022 20.7809 23.1022 21.39C23.1022 21.9989 23.2545 22.4936 23.5589 22.8742C23.8634 23.2929 24.3581 23.5973 25.0812 23.7876V18.9923L25.0814 18.9922ZM26.0327 31.0947C26.6416 31.0185 27.1746 30.714 27.555 30.2194C27.9737 29.6865 28.1639 29.0776 28.1639 28.3164C28.1639 27.7075 28.0117 27.1746 27.7452 26.7942C27.4408 26.4135 26.8699 26.109 26.0325 25.8808V31.0947H26.0327ZM32.9593 18.0786C31.0563 16.1757 28.4305 14.9959 25.4997 14.9959C22.6074 14.9959 19.9813 16.1757 18.0781 18.0786C16.1752 19.9816 14.9954 22.6074 14.9954 25.5002C14.9954 28.4307 16.1752 31.0566 18.0781 32.9598C19.9811 34.863 22.607 36.0425 25.4997 36.0425C28.4302 36.0425 31.0561 34.8627 32.9593 32.9598C34.8622 31.0568 36.042 28.431 36.042 25.5002C36.042 22.6079 34.8622 19.9818 32.9593 18.0786Z" fill="#EBD0C2"/>
</svg>
