<svg width="50" height="50" viewBox="0 0 50 50" fill="none" xmlns="http://www.w3.org/2000/svg">
<rect width="50" height="50" rx="3" fill="#DFFBEC"/>
<path fill-rule="evenodd" clip-rule="evenodd" d="M32.5364 15.4226V14.2258H14.2254V32.5368H15.4222V15.4221H32.5369L32.5364 15.4226ZM34.762 15.4226H38.1845V38.1849H15.4222V34.7624H12V12H34.7624V15.4222L34.762 15.4226ZM20.3486 22.8342C19.2296 21.8987 20.6545 20.1933 21.7746 21.1303L26.8034 25.353L31.8317 21.1303C32.9469 20.2311 34.4396 21.8461 33.2576 22.8342L28.5308 26.8039L33.2576 30.7731C34.3718 31.7048 32.9673 33.4133 31.8317 32.4774L26.8034 28.2543L21.7746 32.4774C20.7244 33.3558 19.0985 31.8185 20.3486 30.7731L25.0759 26.8039L20.3486 22.8342Z" fill="#CCEBDB"/>
</svg>
