<svg width="31" height="44" viewBox="0 0 31 44" fill="none" xmlns="http://www.w3.org/2000/svg">
<path d="M26.6285 1.948C25.9294 2.20673 25.6374 2.38176 25.4914 2.54156C25.3762 2.66332 25.0843 3.06664 25.0843 3.95699C25.0843 4.58861 24.969 8.65986 25.9985 11.27C26.0984 11.4755 26.2981 11.3994 26.398 11.2472C26.5286 11.0493 26.7514 9.64914 26.6055 9.53499C26.4595 9.42085 26.1599 9.29909 26.0216 9.05557C25.8833 8.81206 26.0523 4.52012 26.1368 4.30704C26.2136 4.08636 26.4748 4.12441 26.6669 4.15485C26.5209 3.15796 26.6285 1.948 26.6285 1.948Z" fill="#0A3960"/>
<path d="M30.4776 4.49731H0.522429C0.230483 4.49731 0 4.72561 0 5.01478V43.4824C0 43.7716 0.230483 43.9999 0.522429 43.9999H30.4776C30.7695 43.9999 31 43.7716 31 43.4824V5.01478C31 4.72561 30.7695 4.49731 30.4776 4.49731Z" fill="url(#paint0_linear_313_1581)"/>
<path d="M26.9973 35.3476C26.9896 35.3552 23.6399 38.8937 23.6783 38.8937H4.39455C4.17943 38.8937 4.01041 38.7263 4.01041 38.5132V9.98401C4.01041 9.77093 4.17943 9.60352 4.39455 9.60352H26.6131C26.8283 9.60352 26.9973 9.77093 26.9973 9.98401V35.3476Z" fill="white"/>
<path d="M20.8972 3.56909H10.1029C9.84164 3.56909 9.62652 3.78217 9.62652 4.0409C9.62652 4.29963 9.84164 4.51271 10.1029 4.51271H10.9403C10.825 4.68774 10.7559 4.8932 10.7559 5.1215C10.7559 5.73789 11.2629 6.24014 11.8853 6.24014H19.1147C19.7371 6.24014 20.2441 5.73789 20.2441 5.1215C20.2441 4.90081 20.175 4.69535 20.0597 4.52032H20.8972C21.1584 4.52032 21.3735 4.30724 21.3735 4.04851C21.3812 3.78217 21.166 3.56909 20.8972 3.56909Z" fill="#111110"/>
<path d="M23.6476 13.8423H7.3601V14.4967H23.6476V13.8423Z" fill="url(#paint1_linear_313_1581)"/>
<path d="M23.6476 16.658H7.3601V17.3124H23.6476V16.658Z" fill="url(#paint2_linear_313_1581)"/>
<path d="M23.6476 19.6638H7.3601V20.3183H23.6476V19.6638Z" fill="url(#paint3_linear_313_1581)"/>
<path d="M23.6476 22.4795H7.3601V23.1339H23.6476V22.4795Z" fill="url(#paint4_linear_313_1581)"/>
<path d="M23.6476 25.4854H7.3601V26.1398H23.6476V25.4854Z" fill="url(#paint5_linear_313_1581)"/>
<path d="M23.6476 28.301H7.3601V28.9555H23.6476V28.301Z" fill="url(#paint6_linear_313_1581)"/>
<path d="M23.6476 31.3069H7.3601V31.9613H23.6476V31.3069Z" fill="url(#paint7_linear_313_1581)"/>
<path d="M24.0471 35.3401H27.005L23.6629 38.9091V35.7282C23.6629 35.5151 23.832 35.3401 24.0471 35.3401Z" fill="#D0D2D2"/>
<path d="M28.3648 30.1043C28.3648 30.1043 28.1266 30.6751 28.0037 30.6751C27.8885 30.6751 27.6273 30.0891 27.6273 30.0891L28.3648 30.1043Z" fill="#0A3960"/>
<path d="M28.3648 30.1195C28.6567 29.4727 28.8949 27.4789 28.9256 27.0908L27.0895 27.0984C27.1125 27.7072 27.489 29.7086 27.6426 30.1271C28.0575 30.1271 28.3033 30.1271 28.3648 30.1195Z" fill="#B6BAB6"/>
<path d="M28.9103 27.1595C29.1024 26.2235 29.4711 12.815 29.4711 12.815L26.4057 12.8074C26.4057 12.8074 26.9051 26.2387 27.0971 27.1671C28.1881 27.1899 28.7259 27.1595 28.9103 27.1595Z" fill="#0A3960"/>
<path d="M27.9499 2.06983H27.9576L29.4942 1.9709C29.4942 1.84154 29.6094 0.0380077 27.9576 0.00756836C27.9499 0.00756836 27.9499 0.00756836 27.9499 0.00756836H27.9423C26.2905 0.0380077 26.4057 1.84154 26.4057 1.9709L27.9423 2.06983H27.9499Z" fill="#199CFF"/>
<path d="M27.9423 12.3887L28.3725 12.4344V12.343L29.5019 12.305C29.5019 12.2137 29.5941 2.14588 29.4865 1.65885C28.772 1.64363 28.2649 1.64363 27.9423 1.65124C27.6196 1.64363 27.1125 1.64363 26.4057 1.65885C26.2981 2.14588 26.4518 12.13 26.4518 12.2213L27.512 12.343V12.4344L27.9423 12.3887Z" fill="#0A3960"/>
<path d="M26.3827 12.9518C26.3442 12.9518 26.3135 12.929 26.3135 12.891V12.13C26.3135 12.0995 26.3442 12.0691 26.3827 12.0691H29.5864C29.6171 12.0691 29.6478 12.0995 29.6478 12.13V12.891C29.6478 12.929 29.6171 12.9518 29.5864 12.9518H26.3827Z" fill="white"/>
<defs>
<linearGradient id="paint0_linear_313_1581" x1="0" y1="24.2472" x2="31.0012" y2="24.2472" gradientUnits="userSpaceOnUse">
<stop stop-color="#C4C8C8"/>
<stop offset="0.0639" stop-color="#CED1D1"/>
<stop offset="0.8373" stop-color="#E3E5E5"/>
<stop offset="1" stop-color="white"/>
</linearGradient>
<linearGradient id="paint1_linear_313_1581" x1="7.35864" y1="14.1735" x2="23.6433" y2="14.1735" gradientUnits="userSpaceOnUse">
<stop offset="0.00898606"/>
<stop offset="0.0979" stop-color="#1D1D1B"/>
<stop offset="0.9072" stop-color="#444443"/>
<stop offset="0.9536" stop-color="#9D9D9C"/>
<stop offset="0.9897" stop-color="#6B6B6B"/>
</linearGradient>
<linearGradient id="paint2_linear_313_1581" x1="7.35864" y1="16.985" x2="23.6433" y2="16.985" gradientUnits="userSpaceOnUse">
<stop offset="0.00898606"/>
<stop offset="0.0979" stop-color="#1D1D1B"/>
<stop offset="0.9072" stop-color="#444443"/>
<stop offset="0.9536" stop-color="#9D9D9C"/>
<stop offset="0.9897" stop-color="#6B6B6B"/>
</linearGradient>
<linearGradient id="paint3_linear_313_1581" x1="7.35864" y1="19.9931" x2="23.6433" y2="19.9931" gradientUnits="userSpaceOnUse">
<stop offset="0.00898606"/>
<stop offset="0.0979" stop-color="#1D1D1B"/>
<stop offset="0.9072" stop-color="#444443"/>
<stop offset="0.9536" stop-color="#9D9D9C"/>
<stop offset="0.9897" stop-color="#6B6B6B"/>
</linearGradient>
<linearGradient id="paint4_linear_313_1581" x1="7.35864" y1="22.8058" x2="23.6433" y2="22.8058" gradientUnits="userSpaceOnUse">
<stop offset="0.00898606"/>
<stop offset="0.0979" stop-color="#1D1D1B"/>
<stop offset="0.9072" stop-color="#444443"/>
<stop offset="0.9536" stop-color="#9D9D9C"/>
<stop offset="0.9897" stop-color="#6B6B6B"/>
</linearGradient>
<linearGradient id="paint5_linear_313_1581" x1="7.35864" y1="25.8136" x2="23.6433" y2="25.8136" gradientUnits="userSpaceOnUse">
<stop offset="0.00898606"/>
<stop offset="0.0979" stop-color="#1D1D1B"/>
<stop offset="0.9072" stop-color="#444443"/>
<stop offset="0.9536" stop-color="#9D9D9C"/>
<stop offset="0.9897" stop-color="#6B6B6B"/>
</linearGradient>
<linearGradient id="paint6_linear_313_1581" x1="7.35864" y1="28.6263" x2="23.6433" y2="28.6263" gradientUnits="userSpaceOnUse">
<stop offset="0.00898606"/>
<stop offset="0.0979" stop-color="#1D1D1B"/>
<stop offset="0.9072" stop-color="#444443"/>
<stop offset="0.9536" stop-color="#9D9D9C"/>
<stop offset="0.9897" stop-color="#6B6B6B"/>
</linearGradient>
<linearGradient id="paint7_linear_313_1581" x1="7.35864" y1="31.6347" x2="23.6433" y2="31.6347" gradientUnits="userSpaceOnUse">
<stop offset="0.00898606"/>
<stop offset="0.0979" stop-color="#1D1D1B"/>
<stop offset="0.9072" stop-color="#444443"/>
<stop offset="0.9536" stop-color="#9D9D9C"/>
<stop offset="0.9897" stop-color="#6B6B6B"/>
</linearGradient>
</defs>
</svg>
