<svg width="32" height="40" viewBox="0 0 32 40" fill="none" xmlns="http://www.w3.org/2000/svg">
<path d="M15.5075 3.09425C15.5075 2.83437 15.7207 2.62549 15.9804 2.62549C16.2426 2.62549 16.4533 2.83437 16.4533 3.09425C16.4533 3.35413 16.2426 3.56301 15.9804 3.56301C15.7207 3.56301 15.5075 3.35413 15.5075 3.09425Z" fill="url(#paint0_radial_310_1535)"/>
<path d="M16 40L15.5271 39.8178C15.3629 39.7547 11.4842 38.2245 7.63246 33.4592C5.40276 30.7025 3.62879 27.4115 2.36202 23.6833C0.796325 19.071 0 13.764 0 7.91305V6.73508L1.18346 6.62821C1.26432 6.62092 9.35253 5.82428 15.1375 0.755359L16 0L16.8625 0.755359C22.6671 5.83885 30.7357 6.62092 30.8165 6.62821L32 6.73508V7.91305C32 13.764 31.2037 19.071 29.6355 23.6857C28.3663 27.4139 26.5948 30.7025 24.3651 33.4617C20.5158 38.2245 16.6346 39.7571 16.4704 39.8203L16 40ZM0.237672 6.94881V7.91305C0.237672 13.7398 1.0291 19.02 2.58989 23.6104C3.84931 27.3119 5.60858 30.5787 7.82113 33.3135C11.6312 38.0278 15.456 39.5385 15.6153 39.5992L16.0024 39.7474L16.3871 39.5992C16.5488 39.5361 20.3712 38.0278 24.1813 33.3135C26.3939 30.5762 28.1531 27.3119 29.4126 23.6104C30.9734 19.02 31.7648 13.7373 31.7648 7.91305V6.94881L30.7969 6.86138C30.7161 6.85409 22.5691 6.06473 16.7057 0.932661L16 0.313316L15.2943 0.930233C9.45298 6.04773 1.28637 6.85409 1.20551 6.86138L0.237672 6.94881Z" fill="#646464"/>
<path d="M15.7868 39.1645C15.63 39.1038 11.9204 37.6368 8.19112 33.022C6.01532 30.3285 4.28056 27.1127 3.03829 23.4623C1.49464 18.9204 0.710571 13.6887 0.710571 7.91304V7.37628L1.24962 7.3277C1.33293 7.32041 9.63921 6.51162 15.6104 1.2824L16.0025 0.939941L16.3945 1.2824C22.3755 6.52134 30.672 7.32041 30.7553 7.3277L31.2943 7.37628V7.91304C31.2943 13.6887 30.5103 18.9204 28.9666 23.4623C27.7244 27.1127 25.992 30.3285 23.8162 33.022C20.0845 37.6368 16.3749 39.1038 16.2205 39.1645L16.0074 39.2471L15.7868 39.1645Z" fill="url(#paint1_linear_310_1535)"/>
<path d="M31.2919 7.37638V7.91314C31.2919 13.6888 30.5078 18.9205 28.9642 23.4624C27.7219 27.1129 25.9896 30.3286 23.8138 33.0221C20.0821 37.6369 16.3724 39.1039 16.2181 39.1646L16.0049 39.2472V39.8762L16.4337 39.7111C16.5954 39.6479 20.4496 38.1251 24.2769 33.3889C26.4968 30.6419 28.2634 27.3655 29.5277 23.6494C31.0934 19.0468 31.8873 13.752 31.8873 7.91314V6.84204L31.2919 7.37638Z" fill="url(#paint2_linear_310_1535)"/>
<path d="M8.18867 33.0221C6.01287 30.3286 4.27811 27.1128 3.03584 23.4623C1.49219 18.9205 0.70812 13.6888 0.70812 7.91313V7.37637L0.117615 6.8396V7.9107C0.117615 13.7496 0.911489 19.0443 2.47719 23.6469C3.7415 27.363 5.50812 30.6395 7.72803 33.3864C11.5577 38.1226 15.4095 39.6455 15.5712 39.7086L16 39.8738V39.2447L15.7868 39.1621C15.63 39.1039 11.9204 37.6369 8.18867 33.0221Z" fill="url(#paint3_linear_310_1535)"/>
<path d="M30.7528 7.32778L31.2919 7.37636L31.8824 6.83959L30.8067 6.74244C30.7259 6.73515 22.6205 5.95308 16.7841 0.840441L16 0.155518V0.937593L16.392 1.28005C22.373 6.52142 30.6695 7.3205 30.7528 7.32778Z" fill="url(#paint4_linear_310_1535)"/>
<path d="M1.24716 7.32779C1.33047 7.32051 9.63675 6.51171 15.608 1.2825L16 0.940034V0.157959L15.2159 0.842882C9.39908 5.93852 1.27411 6.73759 1.19571 6.74488L0.120056 6.84203L0.710562 7.3788L1.24716 7.32779Z" fill="url(#paint5_linear_310_1535)"/>
<path d="M16 5.17334C20.3443 8.29193 25.2153 9.64963 27.9326 10.201C27.7587 14.6165 27.075 18.6484 25.8965 22.1896C24.811 25.4539 23.3041 28.3271 21.4175 30.7244C19.3127 33.4009 17.1835 34.8898 16 35.5844C14.8165 34.8898 12.6873 33.4009 10.5825 30.7244C8.69587 28.3271 7.18653 25.4539 6.10352 22.1896C4.92496 18.6484 4.24135 14.6165 4.06738 10.201C6.78469 9.64963 11.6582 8.29193 16 5.17334Z" fill="url(#paint6_linear_310_1535)"/>
<path d="M16 5.3895C20.3149 8.45709 25.1467 9.80264 27.7489 10.3443C27.5651 14.687 26.8864 18.6532 25.7274 22.1361C24.6493 25.3834 23.1498 28.2373 21.2753 30.6175C19.2147 33.2382 17.1198 34.71 15.9976 35.3804C14.8778 34.71 12.7804 33.2382 10.7198 30.6175C8.84778 28.2373 7.35069 25.3834 6.27259 22.1361C5.11363 18.6532 4.43492 14.6845 4.25115 10.3443C6.85084 9.80264 11.6827 8.45709 16 5.3895ZM16 5.17334C11.6582 8.29193 6.78469 9.64963 4.06738 10.201C4.24135 14.6165 4.92496 18.6484 6.10352 22.1896C7.18898 25.4539 8.69587 28.3271 10.5825 30.7244C12.6873 33.4009 14.8165 34.8898 16 35.5844C17.181 34.8898 19.3127 33.4009 21.4175 30.7244C23.3041 28.3271 24.8135 25.4539 25.8965 22.1896C27.0726 18.6484 27.7587 14.6141 27.9326 10.201C25.2153 9.64963 20.3443 8.29193 16 5.17334Z" fill="#343841"/>
<path opacity="0.3" d="M15.6741 5.40165C19.2343 8.51295 23.3115 10.3321 26.0802 11.3061C26.6953 11.5222 27.1289 12.1999 27.0211 12.8386C26.3473 16.885 25.2741 20.5525 23.8236 23.7561C22.3608 26.9889 20.506 29.7723 18.3106 32.0311C17.1222 33.2552 15.9608 34.1903 14.9317 34.8971C15.3384 35.1837 15.7011 35.4095 16 35.5868C17.181 34.8922 19.3127 33.4033 21.4175 30.7268C23.3041 28.3296 24.8135 25.4563 25.8965 22.192C27.0726 18.6508 27.7587 14.6165 27.9326 10.2034C25.2153 9.65206 20.3443 8.29435 16 5.17334C15.8922 5.25106 15.7844 5.32635 15.6741 5.40165Z" fill="black"/>
<path opacity="0.3" d="M16 5.17334C11.6582 8.29193 6.78469 9.64963 4.06738 10.201C4.24135 14.6165 4.92496 18.6484 6.10352 22.1896C7.18898 25.4539 8.69587 28.3271 10.5825 30.7244C12.6873 33.4009 14.8165 34.8898 16 35.5844C17.181 34.8898 19.3127 33.4009 21.4175 30.7244C23.3041 28.3271 24.8135 25.4539 25.8965 22.1896C27.0726 18.6484 27.7587 14.6141 27.9326 10.201C25.2153 9.64963 20.3443 8.29193 16 5.17334ZM25.6735 22.1191C24.5954 25.3591 23.1032 28.2057 21.2312 30.5835C19.1951 33.1726 17.1247 34.6372 16 35.3148C14.8753 34.6396 12.8049 33.1726 10.7688 30.5835C8.89924 28.2081 7.4046 25.3591 6.32649 22.1191C5.17489 18.6532 4.49617 14.7088 4.30996 10.3928C6.91945 9.84393 11.7097 8.5008 15.9976 5.46237C20.2855 8.49837 25.0757 9.84393 27.6851 10.3928C27.5038 14.7088 26.8251 18.6532 25.6735 22.1191Z" fill="black"/>
<path d="M16 4.73608C20.4496 8.00526 25.4873 9.37024 28.2977 9.9143L27.9326 10.2009C25.2153 9.64956 20.3443 8.29186 16 5.17084V4.73608Z" fill="url(#paint7_linear_310_1535)"/>
<path d="M21.4174 30.7268C23.3041 28.3295 24.8135 25.4563 25.8965 22.1919C27.0726 18.6507 27.7586 14.6165 27.9326 10.2033L28.2977 9.91675C28.1433 14.4853 27.4499 18.6434 26.2346 22.3037C25.1369 25.6068 23.6104 28.5141 21.6992 30.9454C19.4622 33.7895 17.2006 35.3172 16.0024 35.9948V35.5868C17.1835 34.8922 19.3127 33.4033 21.4174 30.7268Z" fill="url(#paint8_linear_310_1535)"/>
<path d="M16 4.73608V5.17327C11.6582 8.29186 6.78469 9.64956 4.06739 10.2009L3.7023 9.9143C6.51271 9.37267 11.5504 8.00526 16 4.73608Z" fill="url(#paint9_linear_310_1535)"/>
<path d="M16 35.5868V35.9948C14.7994 35.3148 12.5378 33.7871 10.3008 30.9454C8.3896 28.5141 6.86311 25.6068 5.76295 22.3037C5.1553 20.4748 4.6775 18.5196 4.33447 16.4502C3.98899 14.3833 3.77827 12.1998 3.69986 9.91675L4.06739 10.2009C4.24136 14.6165 4.92497 18.6483 6.10354 22.1895C7.18899 25.4538 8.69588 28.3271 10.5826 30.7243C12.6873 33.4033 14.8166 34.8922 16 35.5868Z" fill="url(#paint10_linear_310_1535)"/>
<path opacity="0.3" d="M15.6447 3.21095C15.6447 2.95106 15.8554 2.74219 16.1176 2.74219C16.3798 2.74219 16.5905 2.95106 16.5905 3.21095C16.5905 3.47083 16.3773 3.67971 16.1176 3.67971C15.8579 3.68213 15.6447 3.47083 15.6447 3.21095Z" fill="black"/>
<path opacity="0.3" d="M21.6968 6.48976C21.6968 6.22987 21.9075 6.021 22.1697 6.021C22.4318 6.021 22.6426 6.22987 22.6426 6.48976C22.6426 6.74964 22.4318 6.95852 22.1697 6.95852C21.9075 6.95852 21.6968 6.74721 21.6968 6.48976Z" fill="black"/>
<path d="M21.5767 6.37086C21.5767 6.11098 21.7874 5.9021 22.0496 5.9021C22.3118 5.9021 22.5225 6.11098 22.5225 6.37086C22.5225 6.63074 22.3093 6.83962 22.0496 6.83962C21.7899 6.83962 21.5767 6.63074 21.5767 6.37086Z" fill="url(#paint11_radial_310_1535)"/>
<path opacity="0.3" d="M10.5409 6.48976C10.5409 6.22987 10.3302 6.021 10.068 6.021C9.80581 6.021 9.59509 6.22987 9.59509 6.48976C9.59509 6.74964 9.80581 6.95852 10.068 6.95852C10.3302 6.95852 10.5409 6.74721 10.5409 6.48976Z" fill="black"/>
<path d="M10.4233 6.37086C10.4233 6.11098 10.2125 5.9021 9.95037 5.9021C9.6882 5.9021 9.47748 6.11098 9.47748 6.37086C9.47748 6.63074 9.6882 6.83962 9.95037 6.83962C10.2101 6.83962 10.4233 6.63074 10.4233 6.37086Z" fill="url(#paint12_radial_310_1535)"/>
<path opacity="0.3" d="M29.0279 8.75587C29.0279 8.49599 29.2386 8.28711 29.5008 8.28711C29.7629 8.28711 29.9737 8.49842 29.9737 8.75587C29.9737 9.01575 29.7605 9.22463 29.5008 9.22463C29.241 9.22463 29.0279 9.01575 29.0279 8.75587Z" fill="black"/>
<path d="M28.9102 8.63917C28.9102 8.37929 29.121 8.17041 29.3831 8.17041C29.6453 8.17041 29.856 8.37929 29.856 8.63917C29.856 8.89905 29.6453 9.10793 29.3831 9.10793C29.121 9.10793 28.9102 8.89662 28.9102 8.63917Z" fill="url(#paint13_radial_310_1535)"/>
<path opacity="0.3" d="M3.2098 8.75587C3.2098 8.49599 2.99908 8.28711 2.7369 8.28711C2.47473 8.28711 2.26401 8.49842 2.26401 8.75587C2.26401 9.01575 2.47718 9.22463 2.7369 9.22463C2.99663 9.22463 3.2098 9.01575 3.2098 8.75587Z" fill="black"/>
<path d="M3.09218 8.63917C3.09218 8.37929 2.88146 8.17041 2.61929 8.17041C2.35711 8.17041 2.14639 8.37929 2.14639 8.63917C2.14639 8.89905 2.35956 9.10793 2.61929 9.10793C2.87901 9.10793 3.09218 8.89662 3.09218 8.63917Z" fill="url(#paint14_radial_310_1535)"/>
<path opacity="0.3" d="M28.0821 20.0886C28.0821 19.8288 28.2928 19.6199 28.555 19.6199C28.8172 19.6199 29.0279 19.8288 29.0279 20.0886C29.0279 20.3485 28.8147 20.5574 28.555 20.5574C28.2928 20.5574 28.0821 20.3485 28.0821 20.0886Z" fill="black"/>
<path d="M27.962 19.9722C27.962 19.7123 28.1728 19.5034 28.4349 19.5034C28.6971 19.5034 28.9078 19.7123 28.9078 19.9722C28.9078 20.2321 28.6971 20.4409 28.4349 20.4409C28.1752 20.4409 27.962 20.2296 27.962 19.9722Z" fill="url(#paint15_radial_310_1535)"/>
<path opacity="0.3" d="M4.1556 20.0886C4.1556 19.8288 3.94488 19.6199 3.6827 19.6199C3.42053 19.6199 3.20981 19.8288 3.20981 20.0886C3.20981 20.3485 3.42298 20.5574 3.6827 20.5574C3.94488 20.5574 4.1556 20.3485 4.1556 20.0886Z" fill="black"/>
<path d="M4.03798 19.9722C4.03798 19.7123 3.82726 19.5034 3.56509 19.5034C3.30291 19.5034 3.09219 19.7123 3.09219 19.9722C3.09219 20.2321 3.30536 20.4409 3.56509 20.4409C3.82481 20.4409 4.03798 20.2296 4.03798 19.9722Z" fill="url(#paint16_radial_310_1535)"/>
<path opacity="0.3" d="M23.853 29.8233C23.853 29.5634 24.0637 29.3545 24.3259 29.3545C24.5881 29.3545 24.7988 29.5634 24.7988 29.8233C24.7988 30.0831 24.5881 30.292 24.3259 30.292C24.0637 30.292 23.853 30.0831 23.853 29.8233Z" fill="black"/>
<path d="M23.7329 29.7068C23.7329 29.4469 23.9436 29.238 24.2058 29.238C24.468 29.238 24.6787 29.4469 24.6787 29.7068C24.6787 29.9667 24.468 30.1756 24.2058 30.1756C23.9461 30.1756 23.7329 29.9667 23.7329 29.7068Z" fill="url(#paint17_radial_310_1535)"/>
<path opacity="0.3" d="M8.38469 29.8233C8.38469 29.5634 8.17397 29.3545 7.9118 29.3545C7.64962 29.3545 7.4389 29.5634 7.4389 29.8233C7.4389 30.0831 7.65207 30.292 7.9118 30.292C8.17397 30.292 8.38469 30.0831 8.38469 29.8233Z" fill="black"/>
<path d="M8.26708 29.7068C8.26708 29.4469 8.05636 29.238 7.79418 29.238C7.53201 29.238 7.32129 29.4469 7.32129 29.7068C7.32129 29.9667 7.53446 30.1756 7.79418 30.1756C8.05636 30.1756 8.26708 29.9667 8.26708 29.7068Z" fill="url(#paint18_radial_310_1535)"/>
<path d="M7.28698 23.3651C6.21378 20.1396 5.55222 16.5061 5.30965 12.5472C5.27045 11.9011 5.77029 11.2721 6.4049 11.119C9.21777 10.4438 13.4003 9.06184 17.1835 6.34644C20.9348 9.03998 27.9204 10.5046 27.9326 10.201C25.2153 9.64962 20.3443 8.29191 16 5.1709C11.6582 8.29191 6.78469 9.64962 4.06738 10.201C4.24135 14.6165 4.92496 18.6483 6.10352 22.1895C7.18898 25.4539 8.69587 28.3271 10.5825 30.7244C11.4034 31.7687 12.2291 32.6334 13.0009 33.3378C12.5917 32.9006 12.1776 32.4221 11.766 31.895C9.87933 29.5002 8.37244 26.6294 7.28698 23.3651Z" fill="white"/>
<path d="M15.6276 26C15.4802 26 15.3409 25.9358 15.2361 25.8223L10.1608 20.288C9.94452 20.051 9.94616 19.684 10.1673 19.4504L11.0077 18.565C11.1208 18.4449 11.283 18.3758 11.4501 18.3758C11.5926 18.3758 11.7319 18.4251 11.84 18.5173L15.2672 21.3922L20.9503 14.2271C21.065 14.0839 21.237 14 21.4222 14C21.5516 14 21.6744 14.0411 21.7777 14.1168L22.7573 14.8426C23.0145 15.0335 23.0768 15.4037 22.8982 15.6687L16.0634 25.7597C15.9602 25.9128 15.8013 26 15.6276 26Z" fill="url(#paint19_linear_310_1535)"/>
<path d="M15.6072 26C15.4999 26 15.396 25.9528 15.3172 25.8667L10.1245 20.1924C9.95685 20.0084 9.95853 19.7233 10.1295 19.5411L10.9894 18.6333C11.0765 18.5405 11.2022 18.4865 11.333 18.4865C11.4436 18.4865 11.5509 18.5253 11.6347 18.5962L15.2585 21.6451L21.1703 14.1755C21.2591 14.0641 21.3916 14 21.534 14C21.6346 14 21.7285 14.0321 21.8089 14.0911L22.8129 14.8352C23.0107 14.982 23.0593 15.2688 22.9219 15.4747L15.929 25.8211C15.8502 25.9359 15.7345 26 15.6072 26Z" fill="url(#paint20_linear_310_1535)"/>
<path d="M10.2767 20.3829C10.1081 20.1978 10.1098 19.9109 10.2818 19.7275L11.1466 18.8139C11.2343 18.7205 11.3607 18.6662 11.4922 18.6662C11.6035 18.6662 11.7114 18.7053 11.7957 18.7766L15.4405 21.8449L21.3866 14.3277C21.476 14.2157 21.6092 14.1511 21.7525 14.1511C21.8536 14.1511 21.948 14.1834 22.0289 14.2428L23 14.9645C22.9697 14.9169 22.9326 14.8745 22.8854 14.8405L21.8755 14.0917C21.7963 14.0323 21.7002 14 21.599 14C21.4557 14 21.3209 14.0645 21.2332 14.1766L15.2905 21.6904L11.6456 18.6237C11.5613 18.5524 11.4535 18.5134 11.3422 18.5134C11.2107 18.5134 11.0859 18.5677 10.9966 18.6611L10.1317 19.5746C9.95808 19.7563 9.9564 20.045 10.125 20.2301L15.3478 25.9406C15.3681 25.9626 15.39 25.983 15.4136 26L10.2767 20.3829Z" fill="white"/>
<path opacity="0.3" d="M22.8073 15.0282L22.7693 15C22.8695 15.1509 22.8729 15.3516 22.7641 15.5059L15.5611 25.6766C15.4817 25.7894 15.3608 25.8524 15.2314 25.8524C15.1485 25.8524 15.0691 25.8258 15 25.7777L15.0881 25.869C15.1692 25.9536 15.2745 26 15.3867 26C15.5162 26 15.6371 25.9353 15.7165 25.8242L22.9195 15.6535C23.0611 15.4545 23.011 15.1725 22.8073 15.0282Z" fill="black"/>
<defs>
<radialGradient id="paint0_radial_310_1535" cx="0" cy="0" r="1" gradientUnits="userSpaceOnUse" gradientTransform="translate(15.8607 2.97507) scale(0.558824 0.553938)">
<stop stop-color="#DADDDD"/>
<stop offset="0.1284" stop-color="#CCCFD0"/>
<stop offset="0.3722" stop-color="#A7A9AE"/>
<stop offset="0.7025" stop-color="#6D6E77"/>
<stop offset="1" stop-color="#323241"/>
</radialGradient>
<linearGradient id="paint1_linear_310_1535" x1="0.837689" y1="7.29093" x2="27.3407" y2="26.5129" gradientUnits="userSpaceOnUse">
<stop stop-color="#EFF0F2"/>
<stop offset="0.3925" stop-color="#82868F"/>
<stop offset="0.5271" stop-color="#93979D"/>
<stop offset="0.757" stop-color="#BABBBD"/>
<stop offset="1" stop-color="#C1C4C0"/>
</linearGradient>
<linearGradient id="paint2_linear_310_1535" x1="33.3334" y1="9.18067" x2="18.9061" y2="40.4686" gradientUnits="userSpaceOnUse">
<stop stop-color="#C2C3C4"/>
<stop offset="0.0341" stop-color="#BABBBD"/>
<stop offset="0.2678" stop-color="#898B8D"/>
<stop offset="0.4887" stop-color="#626568"/>
<stop offset="0.6909" stop-color="#46494E"/>
<stop offset="0.8678" stop-color="#35393E"/>
<stop offset="1" stop-color="#A6A9A8"/>
</linearGradient>
<linearGradient id="paint3_linear_310_1535" x1="-2.42678" y1="8.12871" x2="14.3414" y2="41.2634" gradientUnits="userSpaceOnUse">
<stop stop-color="#DEDFE0"/>
<stop offset="0.1576" stop-color="#DADBDC"/>
<stop offset="0.3177" stop-color="#CECFD1"/>
<stop offset="0.4788" stop-color="#B9BBBE"/>
<stop offset="0.6408" stop-color="#9D9FA3"/>
<stop offset="0.8034" stop-color="#787B81"/>
<stop offset="0.9645" stop-color="#4C5057"/>
<stop offset="1" stop-color="#A6A9A9"/>
</linearGradient>
<linearGradient id="paint4_linear_310_1535" x1="16.3999" y1="0.966229" x2="30.8164" y2="7.75321" gradientUnits="userSpaceOnUse">
<stop stop-color="#BEC1BD"/>
<stop offset="1" stop-color="#C2C3C4"/>
</linearGradient>
<linearGradient id="paint5_linear_310_1535" x1="0.00124411" y1="7.39412" x2="35.5084" y2="-6.10493" gradientUnits="userSpaceOnUse">
<stop stop-color="#C2C3C4"/>
<stop offset="0.0376" stop-color="#E4E6E8"/>
<stop offset="1" stop-color="#41454D"/>
</linearGradient>
<linearGradient id="paint6_linear_310_1535" x1="4.0089" y1="10.3694" x2="25.0264" y2="25.3222" gradientUnits="userSpaceOnUse">
<stop stop-color="#EFF0F2"/>
<stop offset="1" stop-color="#B7BAB7"/>
</linearGradient>
<linearGradient id="paint7_linear_310_1535" x1="13.3362" y1="3.98629" x2="28.2972" y2="10.6798" gradientUnits="userSpaceOnUse">
<stop stop-color="#343841"/>
<stop offset="1" stop-color="#EFF0F2"/>
</linearGradient>
<linearGradient id="paint8_linear_310_1535" x1="29.7569" y1="10.5808" x2="17.3173" y2="37.8583" gradientUnits="userSpaceOnUse">
<stop stop-color="#EFF0F2"/>
<stop offset="1" stop-color="#ACAFAE"/>
</linearGradient>
<linearGradient id="paint9_linear_310_1535" x1="3.70225" y1="7.46922" x2="16.001" y2="7.46922" gradientUnits="userSpaceOnUse">
<stop stop-color="#EFF0F2"/>
<stop offset="1" stop-color="#BEC1BE"/>
</linearGradient>
<linearGradient id="paint10_linear_310_1535" x1="3.70226" y1="22.9546" x2="16.001" y2="22.9546" gradientUnits="userSpaceOnUse">
<stop stop-color="#EFF0F2"/>
<stop offset="1" stop-color="#BEC1BD"/>
</linearGradient>
<radialGradient id="paint11_radial_310_1535" cx="0" cy="0" r="1" gradientUnits="userSpaceOnUse" gradientTransform="translate(21.9305 6.25207) scale(0.558873 0.553987)">
<stop stop-color="#DADDDD"/>
<stop offset="0.1284" stop-color="#CCCFD0"/>
<stop offset="0.3722" stop-color="#A7A9AE"/>
<stop offset="0.7025" stop-color="#6D6E77"/>
<stop offset="1" stop-color="#323241"/>
</radialGradient>
<radialGradient id="paint12_radial_310_1535" cx="0" cy="0" r="1" gradientUnits="userSpaceOnUse" gradientTransform="translate(9.83455 6.17204) rotate(180) scale(0.558897 0.554012)">
<stop stop-color="#DADDDD"/>
<stop offset="0.1284" stop-color="#CCCFD0"/>
<stop offset="0.3722" stop-color="#A7A9AE"/>
<stop offset="0.7025" stop-color="#6D6E77"/>
<stop offset="1" stop-color="#323241"/>
</radialGradient>
<radialGradient id="paint13_radial_310_1535" cx="0" cy="0" r="1" gradientUnits="userSpaceOnUse" gradientTransform="translate(29.2626 8.51882) scale(0.5588 0.553913)">
<stop stop-color="#DADDDD"/>
<stop offset="0.1284" stop-color="#CCCFD0"/>
<stop offset="0.3722" stop-color="#A7A9AE"/>
<stop offset="0.7025" stop-color="#6D6E77"/>
<stop offset="1" stop-color="#323241"/>
</radialGradient>
<radialGradient id="paint14_radial_310_1535" cx="0" cy="0" r="1" gradientUnits="userSpaceOnUse" gradientTransform="translate(2.46264 8.47326) rotate(180) scale(0.558775 0.553889)">
<stop stop-color="#DADDDD"/>
<stop offset="0.1284" stop-color="#CCCFD0"/>
<stop offset="0.3722" stop-color="#A7A9AE"/>
<stop offset="0.7025" stop-color="#6D6E77"/>
<stop offset="1" stop-color="#323241"/>
</radialGradient>
<radialGradient id="paint15_radial_310_1535" cx="0" cy="0" r="1" gradientUnits="userSpaceOnUse" gradientTransform="translate(28.316 19.8521) scale(0.558824 0.553938)">
<stop stop-color="#DADDDD"/>
<stop offset="0.1284" stop-color="#CCCFD0"/>
<stop offset="0.3722" stop-color="#A7A9AE"/>
<stop offset="0.7025" stop-color="#6D6E77"/>
<stop offset="1" stop-color="#323241"/>
</radialGradient>
<radialGradient id="paint16_radial_310_1535" cx="0" cy="0" r="1" gradientUnits="userSpaceOnUse" gradientTransform="translate(3.45532 19.7611) rotate(180) scale(0.558824 0.553938)">
<stop stop-color="#DADDDD"/>
<stop offset="0.1284" stop-color="#CCCFD0"/>
<stop offset="0.3722" stop-color="#A7A9AE"/>
<stop offset="0.7025" stop-color="#6D6E77"/>
<stop offset="1" stop-color="#323241"/>
</radialGradient>
<radialGradient id="paint17_radial_310_1535" cx="0" cy="0" r="1" gradientUnits="userSpaceOnUse" gradientTransform="translate(24.0865 29.5873) scale(0.5588 0.553912)">
<stop stop-color="#DADDDD"/>
<stop offset="0.1284" stop-color="#CCCFD0"/>
<stop offset="0.3722" stop-color="#A7A9AE"/>
<stop offset="0.7025" stop-color="#6D6E77"/>
<stop offset="1" stop-color="#D6D7D7"/>
</radialGradient>
<radialGradient id="paint18_radial_310_1535" cx="0" cy="0" r="1" gradientUnits="userSpaceOnUse" gradientTransform="translate(7.74579 29.5417) rotate(180) scale(0.558823 0.553937)">
<stop stop-color="#DADDDD"/>
<stop offset="0.1284" stop-color="#CCCFD0"/>
<stop offset="0.3722" stop-color="#A7A9AE"/>
<stop offset="0.7025" stop-color="#6D6E77"/>
<stop offset="1" stop-color="#323241"/>
</radialGradient>
<linearGradient id="paint19_linear_310_1535" x1="14.4793" y1="13.396" x2="19.9331" y2="24.6449" gradientUnits="userSpaceOnUse">
<stop stop-color="#EFF0F2"/>
<stop offset="1" stop-color="#343841"/>
</linearGradient>
<linearGradient id="paint20_linear_310_1535" x1="12.0973" y1="15.5283" x2="23.0145" y2="22.9539" gradientUnits="userSpaceOnUse">
<stop stop-color="#A3C4F5"/>
<stop offset="0.0461" stop-color="#9FC1F4"/>
<stop offset="0.093" stop-color="#93B9F3"/>
<stop offset="0.1401" stop-color="#7EACF0"/>
<stop offset="0.1875" stop-color="#6299EC"/>
<stop offset="0.2346" stop-color="#3E81E6"/>
<stop offset="0.2742" stop-color="#1969E1"/>
<stop offset="0.3367" stop-color="#2A74E4"/>
<stop offset="0.4686" stop-color="#4888EA"/>
<stop offset="0.543" stop-color="#5390EC"/>
<stop offset="0.5736" stop-color="#4B85DC"/>
<stop offset="0.6767" stop-color="#3463AB"/>
<stop offset="0.7741" stop-color="#214984"/>
<stop offset="0.8634" stop-color="#143668"/>
<stop offset="0.9415" stop-color="#0C2A57"/>
<stop offset="1" stop-color="#092651"/>
</linearGradient>
</defs>
</svg>
