<svg width="28" height="34" viewBox="0 0 28 34" fill="none" xmlns="http://www.w3.org/2000/svg">
<path d="M15.6379 24.2425C17.0943 24.2425 18.2794 22.9093 18.2794 21.2706C18.2794 20.2179 16.9143 17.8577 15.6379 16.0205C14.3614 17.8577 12.9963 20.218 12.9963 21.2706C12.9963 22.9093 14.1814 24.2425 15.6379 24.2425Z" fill="#199CFF"/>
<path d="M9.2045 13.5915V27.8723C9.2045 28.0537 9.35159 28.2008 9.53296 28.2008H21.744C21.9254 28.2008 22.0725 28.0537 22.0725 27.8723V11.7001C22.0725 11.5187 21.9254 11.3716 21.744 11.3716H11.3774C11.2889 11.3716 11.2041 11.4073 11.1423 11.4707L9.29778 13.3621C9.238 13.4234 9.2045 13.5058 9.2045 13.5915ZM14.8554 13.7463C15.042 13.5025 15.331 13.3599 15.6378 13.3599C15.9448 13.3599 16.2336 13.5026 16.4202 13.7463C16.4583 13.7962 17.3669 14.9862 18.2879 16.4679C19.6083 18.591 20.2502 20.1621 20.2502 21.2706C20.2502 23.9962 18.1808 26.2138 15.6378 26.2138C13.0949 26.2138 11.0255 23.9961 11.0255 21.2706C11.0255 20.1621 11.6673 18.591 12.9878 16.4679C13.9088 14.9862 14.8173 13.7962 14.8554 13.7463Z" fill="#199CFF"/>
<path d="M27.0146 6.56932e-05H22.5651C22.5645 6.56932e-05 22.5639 0 22.5632 0H14.6491C14.2885 0 13.9567 0.197014 13.784 0.513655L11.0965 5.44203H9.20845C8.94699 5.44203 8.69604 5.54582 8.51144 5.73114L8.13174 6.11157L6.57599 4.5555L7.27825 3.85304C7.66308 3.46814 7.66308 2.84406 7.27825 2.45916C6.89349 2.07426 6.26953 2.07426 5.8847 2.45916L0.288623 8.05662C-0.0962077 8.44151 -0.0962077 9.0656 0.288623 9.4505C0.673454 9.83539 1.29734 9.83539 1.68217 9.4505L2.38417 8.7483L3.93946 10.3043L3.5654 10.6784C3.38015 10.8631 3.27635 11.1141 3.27635 11.3756V32.6494C3.27635 33.1941 3.71781 33.635 4.26175 33.635H27.0146C27.5592 33.635 28 33.1941 28 32.6494V0.985727C28 0.440999 27.5592 6.56932e-05 27.0146 6.56932e-05ZM15.234 1.97126H20.4085L20.4084 1.97132L18.5158 5.44203H13.3413L15.234 1.97126ZM24.0433 29.1865C24.0433 29.7306 23.6018 30.1721 23.0579 30.1721H8.21911C7.67451 30.1721 7.23371 29.7305 7.23371 29.1865V13.0563C7.23371 12.7994 7.33422 12.5523 7.51356 12.3684L10.1183 9.69737C10.3036 9.50745 10.5578 9.40037 10.8232 9.40037H23.0579C23.6018 9.40037 24.0433 9.84131 24.0433 10.386V29.1865Z" fill="#199CFF"/>
</svg>
