<svg width="35" height="35" viewBox="0 0 35 35" fill="none" xmlns="http://www.w3.org/2000/svg">
<rect x="1" y="1" width="33" height="32.8913" stroke="#199CFF" stroke-width="2"/>
<path fill-rule="evenodd" clip-rule="evenodd" d="M4.23914 4.23926H30.7609V16.5219H4.23914V4.23926ZM6.41305 6.1969H8.58696V14.6752H6.41305V6.1969ZM12.6087 6.19556H10.4348V14.6738H12.6087V6.19556ZM14.4565 6.19556H16.6304V14.6738H14.4565V6.19556ZM20.6522 6.19556H18.4783V14.6738H20.6522V6.19556ZM22.5 6.19556H24.6739V14.6738H22.5V6.19556ZM28.6957 6.19556H26.5217V14.6738H28.6957V6.19556Z" fill="#199CFF"/>
<path fill-rule="evenodd" clip-rule="evenodd" d="M4.23914 18.3696H30.7609V30.6522H4.23914V18.3696ZM6.41305 20.3267H8.58696V28.805H6.41305V20.3267ZM12.6087 20.3258H10.4348V28.804H12.6087V20.3258ZM14.4565 20.3258H16.6304V28.804H14.4565V20.3258ZM20.6522 20.3258H18.4783V28.804H20.6522V20.3258ZM22.5 20.3258H24.6739V28.804H22.5V20.3258ZM28.6957 20.3258H26.5217V28.804H28.6957V20.3258Z" fill="#199CFF"/>
</svg>
