<svg width="34" height="34" viewBox="0 0 34 34" fill="none" xmlns="http://www.w3.org/2000/svg">
<path d="M17 5.66675C10.7509 5.66675 5.66664 10.751 5.66664 17.0001C5.66664 23.2492 10.7509 28.3335 17 28.3335C23.2491 28.3335 28.3334 23.2492 28.3334 17.0001C28.3334 10.751 23.2491 5.66675 17 5.66675ZM22.7981 9.90015C22.9254 9.75837 23.1053 9.67463 23.2962 9.66706C23.4608 9.6484 23.6725 9.72862 23.8108 9.86004C25.2801 11.2511 26.2789 13.022 26.6967 14.981C26.7631 15.2936 26.6123 15.6118 26.3287 15.7584C25.6355 16.1168 24.8124 16.2904 24.0239 16.2904C22.9959 16.2904 22.022 15.9956 21.4575 15.4312C20.2567 14.2311 20.7575 12.1635 22.7981 9.90015ZM11.2019 24.2107C11.0746 24.3525 10.8948 24.4369 10.7039 24.4445C10.6956 24.4452 10.6859 24.4452 10.6762 24.4452C10.495 24.4452 10.3207 24.376 10.1892 24.2515C8.72 22.8604 7.72112 21.0895 7.30336 19.1299C7.23695 18.8172 7.38776 18.499 7.67138 18.3524C9.26792 17.5286 11.5451 17.6821 12.5425 18.6796C13.742 19.8798 13.2411 21.9474 11.2019 24.2107ZM12.5425 15.4313C11.978 15.9957 11.004 16.2904 9.97614 16.2904C9.18757 16.2904 8.36579 16.1168 7.67131 15.7585C7.38769 15.6119 7.23688 15.2937 7.30329 14.981C7.72112 13.022 8.71993 11.2512 10.1892 9.8601C10.3275 9.72869 10.5309 9.64707 10.7038 9.66713C10.8947 9.67476 11.0746 9.75844 11.2019 9.90021C13.2425 12.1635 13.7433 14.2311 12.5425 15.4313ZM20.0187 26.4457C19.0378 26.7584 18.0223 26.9168 17 26.9168C15.9777 26.9168 14.9621 26.7584 13.9813 26.4457C13.67 26.3461 13.4667 26.0473 13.4888 25.7215C13.6659 23.1724 15.1752 21.2501 17 21.2501C18.8248 21.2501 20.3341 23.1724 20.5112 25.7214C20.5333 26.0473 20.33 26.3461 20.0187 26.4457ZM14.1666 17.0001C14.1666 15.4375 15.4381 14.1667 17 14.1667C18.5619 14.1667 19.8334 15.4374 19.8334 17.0001C19.8334 18.5628 18.5619 19.8335 17 19.8335C15.4381 19.8335 14.1666 18.5627 14.1666 17.0001ZM20.5112 8.33475C20.3341 10.8831 18.8248 12.8054 17 12.8054C15.1752 12.8054 13.6659 10.8831 13.4888 8.33475C13.4667 8.00896 13.6686 7.71013 13.9799 7.61119C15.9417 6.98445 18.0584 6.98445 20.0201 7.61119C20.3314 7.71013 20.5333 8.00896 20.5112 8.33475ZM26.6967 19.0172C26.2789 20.9768 25.2801 22.7477 23.8108 24.1388C23.6794 24.2633 23.5051 24.3325 23.3239 24.3325C23.3142 24.3325 23.3045 24.3325 23.2962 24.3318C23.1053 24.3242 22.9254 24.2405 22.7981 24.0987C20.7575 21.8354 20.2567 19.7671 21.4575 18.567C22.455 17.5688 24.7308 17.4173 26.3287 18.2398C26.6123 18.3863 26.7631 18.7046 26.6967 19.0172Z" fill="#199CFF"/>
<path d="M17 0C7.62563 0 0 7.62636 0 17C0 26.3736 7.62563 34 17 34C26.3744 34 34 26.3736 34 17C34 7.62636 26.3744 0 17 0ZM17 29.75C9.96924 29.75 4.25 24.0301 4.25 17C4.25 9.9699 9.96924 4.25 17 4.25C24.0308 4.25 29.75 9.9699 29.75 17C29.75 24.0301 24.0308 29.75 17 29.75Z" fill="#199CFF"/>
</svg>
