<svg width="25" height="25" viewBox="0 0 25 25" fill="none" xmlns="http://www.w3.org/2000/svg">
<path d="M13.5431 23.1882C12.4562 23.3626 11.3295 23.4503 10.1958 23.4503C4.78797 23.4503 1.01961 21.5692 1.01961 19.8818V16.8047C2.65398 18.3361 6.10222 19.372 10.1958 19.372C10.7301 19.372 11.2511 19.3505 11.7629 19.3148C12.0433 19.2965 12.2563 19.0528 12.237 18.7714C12.2176 18.491 11.977 18.2769 11.6935 18.2973C11.2041 18.3309 10.7066 18.3523 10.1958 18.3523C4.78792 18.3523 1.01956 16.4712 1.01956 14.7838V11.7067C2.65393 13.2381 6.10217 14.274 10.1958 14.274C11.6497 14.274 13.0648 14.1394 14.4036 13.8754C14.6799 13.8203 14.8593 13.5532 14.8053 13.2769C14.7502 12.9995 14.479 12.817 14.2058 12.8752C12.9323 13.127 11.5834 13.2544 10.1958 13.2544C4.78792 13.2544 1.01956 11.3733 1.01956 9.6859V6.60882C2.65398 8.14029 6.10217 9.17619 10.1958 9.17619C14.2893 9.17619 17.7376 8.14029 19.372 6.60891V9.69212C19.3689 10.3813 18.7643 10.9625 18.2555 11.3275C18.0271 11.4927 17.9751 11.8108 18.1393 12.0392C18.2382 12.1779 18.3952 12.2513 18.5532 12.2513C18.6562 12.2513 18.7602 12.2197 18.8509 12.1564C19.0477 12.0147 19.2118 11.8638 19.3719 11.7129V11.8068C19.3719 12.0882 19.6003 12.3166 19.8817 12.3166C20.1631 12.3166 20.3915 12.0882 20.3915 11.8068V9.69317C20.3915 9.69111 20.3925 9.68911 20.3925 9.68705C20.3925 9.68499 20.3915 9.68399 20.3915 9.68194V4.5881C20.3915 2.0157 15.9125 0 10.1958 0C4.47899 0 0 2.0157 0 4.5881V19.8818C0 22.4541 4.47899 24.4699 10.1958 24.4699C11.3835 24.4699 12.5632 24.3771 13.7031 24.1956C13.9815 24.1507 14.1701 23.8897 14.1262 23.6114C14.0824 23.3341 13.8194 23.1464 13.5431 23.1882ZM10.1958 1.01956C15.6036 1.01956 19.372 2.90068 19.372 4.5881C19.372 6.27551 15.6036 8.15663 10.1958 8.15663C4.78792 8.15663 1.01956 6.27551 1.01956 4.5881C1.01956 2.90068 4.78792 1.01956 10.1958 1.01956Z" fill="#199CFF"/>
<path d="M18.8588 13.2568C15.7662 13.2568 13.2508 15.7733 13.2508 18.8648C13.2508 21.9563 15.7662 24.4729 18.8588 24.4729C21.9514 24.4729 24.4668 21.9564 24.4668 18.8648C24.4668 15.7733 21.9514 13.2568 18.8588 13.2568ZM18.8588 23.4532C16.3291 23.4532 14.2704 21.3946 14.2704 18.8648C14.2704 16.3351 16.3291 14.2764 18.8588 14.2764C21.3886 14.2764 23.4472 16.3351 23.4472 18.8648C23.4472 21.3946 21.3886 23.4532 18.8588 23.4532Z" fill="#199CFF"/>
<path d="M19.2189 15.4438C19.171 15.397 19.1149 15.3592 19.0517 15.3337C19.016 15.3194 18.9772 15.3174 18.9405 15.3113C18.913 15.3062 18.8875 15.294 18.8579 15.294C18.8192 15.294 18.7845 15.3082 18.7478 15.3164C18.7203 15.3225 18.6918 15.3225 18.6652 15.3327C18.601 15.3592 18.5429 15.3979 18.4949 15.4459L16.4587 17.4821C16.2599 17.6809 16.2599 18.0042 16.4587 18.203C16.6575 18.4018 16.9808 18.4018 17.1796 18.203L18.3481 17.0355V21.9216C18.3481 22.203 18.5765 22.4315 18.8579 22.4315C19.1394 22.4315 19.3678 22.203 19.3678 21.9216V17.0355L20.5363 18.204C20.6362 18.3029 20.7667 18.3529 20.8973 18.3529C21.0278 18.3529 21.1583 18.3029 21.2582 18.204C21.457 18.0052 21.457 17.6819 21.2582 17.4831L19.2189 15.4438Z" fill="#199CFF"/>
</svg>
