<svg width="25" height="25" viewBox="0 0 25 25" fill="none" xmlns="http://www.w3.org/2000/svg">
<path d="M22.498 13.8103V11.442C22.498 9.91888 21.2587 8.67912 19.7351 8.67912H17.3669V6.28644C17.3669 5.59729 17.0097 4.97406 16.4113 4.61843C15.7999 4.25609 15.0622 4.24267 14.4508 4.57659L13.8146 4.89354V3.60681C13.8146 2.79096 13.363 2.07892 12.6364 1.74934C11.9378 1.43279 11.1424 1.55278 10.561 2.06234L3.00921 8.67912H2.76291C1.23936 8.67912 0 9.91888 0 11.442V21.7043C0 23.2274 1.23936 24.4672 2.76291 24.4672H19.7351C21.2587 24.4672 22.498 23.2274 22.498 21.7043V19.3361C23.5862 19.3361 24.4715 18.4508 24.4715 17.3626V15.7838C24.4715 14.6956 23.5862 13.8103 22.498 13.8103ZM14.8159 5.276C15.1929 5.07036 15.6389 5.07786 16.0083 5.29732C16.3647 5.50888 16.5775 5.87832 16.5775 6.28644V8.67912H7.99114L14.8159 5.276ZM11.0813 2.65597C11.4318 2.34889 11.8912 2.27824 12.3104 2.46849C12.6557 2.62518 13.0252 3.00647 13.0252 3.60681V5.28706L6.22248 8.67912H4.20713L11.0813 2.65597ZM21.7086 21.7043C21.7086 22.7925 20.8233 23.6778 19.7351 23.6778H2.76291C1.67472 23.6778 0.789404 22.7925 0.789404 21.7043V11.442C0.789404 10.3538 1.67472 9.46853 2.76291 9.46853H19.7351C20.8233 9.46853 21.7086 10.3538 21.7086 11.442V13.8103H17.7616C15.7881 13.8103 15.7881 15.8899 15.7881 16.5732C15.7881 17.2564 15.7881 19.3361 17.7616 19.3361H21.7086V21.7043ZM23.6821 17.3626C23.6821 18.0154 23.1509 18.5467 22.498 18.5467H17.7616C17.0507 18.5467 16.5775 18.2108 16.5775 16.5732C16.5775 14.9355 17.0507 14.5997 17.7616 14.5997H22.498C23.1509 14.5997 23.6821 15.1309 23.6821 15.7838V17.3626Z" fill="#199CFF"/>
<path d="M18.95 14.9973C18.0793 14.9973 17.3712 15.7054 17.3712 16.5761C17.3712 17.4468 18.0793 18.1549 18.95 18.1549C19.8207 18.1549 20.5288 17.4468 20.5288 16.5761C20.5288 15.7054 19.8207 14.9973 18.95 14.9973ZM18.95 17.3655C18.5146 17.3655 18.1606 17.0115 18.1606 16.5761C18.1606 16.1408 18.5146 15.7867 18.95 15.7867C19.3853 15.7867 19.7394 16.1408 19.7394 16.5761C19.7394 17.0115 19.3853 17.3655 18.95 17.3655Z" fill="#199CFF"/>
<path d="M18.9879 6.22011L18.7412 6.36812C18.6283 6.43601 18.5569 6.55521 18.5502 6.68625C18.5435 6.81769 18.6023 6.9436 18.7073 7.02254L20.2861 8.20665C20.3559 8.25914 20.4396 8.28559 20.5229 8.28559C20.5991 8.28559 20.6752 8.26348 20.7419 8.21928L20.8114 8.1731C22.2509 7.21318 23.1516 5.65371 23.272 3.94386H23.7914C24.0645 3.94386 24.3085 3.78085 24.4127 3.52864C24.5125 3.28708 24.4648 3.01316 24.2911 2.82094L22.4889 0.396676C22.3014 0.144461 22.0137 0 21.6999 0H21.6995C21.3853 0.000394702 21.098 0.144856 20.9109 0.397465L19.1197 2.80909C18.9445 3.00289 18.8955 3.27958 18.9966 3.5239C19.102 3.77888 19.3486 3.94347 19.6245 3.94347H20.1724C20.2367 4.85444 19.7856 5.74134 18.9879 6.22011ZM20.9176 3.54798C20.9156 3.50495 20.9065 3.46114 20.8892 3.41891L20.8817 3.40075C20.8817 3.40036 20.8813 3.40036 20.8813 3.39996C20.8458 3.31195 20.7814 3.24366 20.7037 3.20143C20.6259 3.1592 20.7037 3.20103 20.7033 3.20103C20.6812 3.18959 20.6579 3.17933 20.6342 3.17222C20.5939 3.15959 20.5509 3.15564 20.5083 3.15406H19.8468L21.5448 0.867555C21.5949 0.799666 21.6636 0.789404 21.6999 0.789404C21.7362 0.789404 21.8049 0.799666 21.8558 0.867555L23.5562 3.15406H22.8915C22.6736 3.15406 22.4968 3.3305 22.4968 3.54877C22.4968 5.08139 21.7662 6.50864 20.5331 7.40501L19.6391 6.73401C20.6318 6.00815 21.1355 4.77037 20.9176 3.54798Z" fill="#199CFF"/>
</svg>
