<svg width="19" height="25" viewBox="0 0 19 25" fill="none" xmlns="http://www.w3.org/2000/svg">
<path d="M16.5818 3.29359H14.3939V2.31482C14.3939 1.99815 14.0485 1.85422 13.7318 1.85422H12.0334C11.6304 0.702709 10.6228 0.126952 9.47126 0.126952C8.33242 0.0841377 7.29657 0.782442 6.90915 1.85422H5.23945C4.92278 1.85422 4.60612 1.99815 4.60612 2.31482V3.29359H2.41819C1.12165 3.30742 0.0609425 4.33022 0 5.62538V22.1208C0 23.3875 1.15151 24.3087 2.41819 24.3087H16.5818C17.8485 24.3087 19 23.3875 19 22.1208V5.62544C18.9391 4.33022 17.8783 3.30742 16.5818 3.29359ZM5.75758 3.00574H7.34092C7.61731 2.97202 7.83932 2.76175 7.88792 2.48756C8.0584 1.74512 8.70976 1.21218 9.47126 1.19212C10.2257 1.21499 10.8673 1.74959 11.0258 2.48756C11.0774 2.77123 11.3141 2.98419 11.6016 3.00574H13.2425V5.30877H5.75758V3.00574ZM17.8485 22.1208C17.8485 22.7542 17.2151 23.1572 16.5818 23.1572H2.41819C1.78485 23.1572 1.15152 22.7542 1.15152 22.1208V5.62544C1.21025 4.9662 1.75642 4.45723 2.41819 4.44516H4.60606V5.91335C4.63648 6.23591 4.91584 6.4772 5.2394 6.46034H13.7318C14.0613 6.47836 14.3494 6.24037 14.3939 5.91335V4.44511H16.5818C17.2435 4.45723 17.7897 4.96615 17.8484 5.62538V22.1208H17.8485Z" fill="#199CFF"/>
<path d="M7.28033 12.9947C7.06438 12.767 6.70589 12.7542 6.47425 12.9659L4.63182 14.7219L3.85455 13.9159C3.63861 13.6882 3.28012 13.6754 3.04847 13.8871C2.82548 14.1207 2.82548 14.4883 3.04847 14.7219L4.22875 15.9311C4.33091 16.0454 4.47847 16.1087 4.63176 16.1038C4.78362 16.1016 4.92848 16.0395 5.03477 15.9311L7.28022 13.8008C7.50283 13.5965 7.51771 13.2505 7.31344 13.0279C7.30297 13.0163 7.2919 13.0052 7.28033 12.9947Z" fill="#199CFF"/>
<path d="M15.5468 14.2322H8.92561C8.60762 14.2322 8.34985 14.4899 8.34985 14.8079C8.34985 15.1259 8.60762 15.3837 8.92561 15.3837H15.5468C15.8648 15.3837 16.1226 15.1259 16.1226 14.8079C16.1226 14.4899 15.8648 14.2322 15.5468 14.2322Z" fill="#199CFF"/>
<path d="M7.28033 8.38939C7.06438 8.16177 6.70589 8.14893 6.47425 8.36063L4.63182 10.1167L3.85455 9.31058C3.63861 9.08295 3.28012 9.07011 3.04847 9.28181C2.82548 9.51544 2.82548 9.88302 3.04847 10.1167L4.22875 11.3257C4.33091 11.4401 4.47847 11.5034 4.63176 11.4985C4.78362 11.4963 4.92848 11.4342 5.03477 11.3257L7.28022 9.19547C7.50283 8.99126 7.51771 8.64523 7.31344 8.42267C7.30297 8.41104 7.2919 8.39997 7.28033 8.38939Z" fill="#199CFF"/>
<path d="M15.5468 9.6269H8.92561C8.60762 9.6269 8.34985 9.88467 8.34985 10.2027C8.34985 10.5206 8.60762 10.7784 8.92561 10.7784H15.5468C15.8648 10.7784 16.1226 10.5206 16.1226 10.2027C16.1226 9.88467 15.8648 9.6269 15.5468 9.6269Z" fill="#199CFF"/>
<path d="M7.28033 17.6025C7.06438 17.3749 6.70589 17.3621 6.47425 17.5738L4.63182 19.3298L3.85455 18.5237C3.63861 18.2961 3.28012 18.2833 3.04847 18.4949C2.82548 18.7286 2.82548 19.0962 3.04847 19.3298L4.22875 20.5389C4.33091 20.6533 4.47847 20.7165 4.63176 20.7116C4.78362 20.7095 4.92848 20.6474 5.03477 20.5389L7.28022 18.4086C7.50283 18.2044 7.51771 17.8584 7.31344 17.6358C7.30297 17.6242 7.2919 17.6132 7.28033 17.6025Z" fill="#199CFF"/>
<path d="M15.5468 18.8401H8.92561C8.60762 18.8401 8.34985 19.0978 8.34985 19.4158C8.34985 19.7338 8.60762 19.9916 8.92561 19.9916H15.5468C15.8648 19.9916 16.1226 19.7338 16.1226 19.4158C16.1226 19.0978 15.8648 18.8401 15.5468 18.8401Z" fill="#199CFF"/>
</svg>
