<svg width="21" height="26" viewBox="0 0 21 26" fill="none" xmlns="http://www.w3.org/2000/svg">
<path d="M18.6724 1.38625H15.7591C14.9903 0.538045 13.8573 0 12.5948 0H8.40517C7.14269 0 6.00972 0.538045 5.24095 1.38625H2.32759C1.04416 1.38625 0 2.3857 0 3.61413V23.071C0 24.2994 1.04416 25.2989 2.32759 25.2989H18.6724C19.9558 25.2989 21 24.2994 21 23.071V3.61413C21 2.38565 19.9558 1.38625 18.6724 1.38625ZM8.40517 1.48527H12.5948C13.7936 1.48527 14.7892 2.25189 15.1164 3.26755H5.88362C6.21021 2.25367 7.2045 1.48527 8.40517 1.48527ZM19.4483 23.071C19.4483 23.4805 19.1002 23.8136 18.6724 23.8136H2.32759C1.89978 23.8136 1.55172 23.4805 1.55172 23.071V3.61413C1.55172 3.20465 1.89978 2.87152 2.32759 2.87152H4.38859C4.2766 3.23272 4.21552 3.61467 4.21552 4.01021C4.21552 4.42033 4.5629 4.75283 4.99138 4.75283H16.0086C16.4371 4.75283 16.7845 4.42033 16.7845 4.01021C16.7845 3.61467 16.7234 3.23272 16.6114 2.87152H18.6724C19.1002 2.87152 19.4483 3.20465 19.4483 3.61413V23.071Z" fill="#199CFF"/>
<path d="M6.67477 14.757L5.53374 15.8491L5.25474 15.5821C4.95179 15.292 4.46052 15.292 4.15752 15.5821C3.85452 15.8721 3.85452 16.3423 4.15752 16.6323L4.9851 17.4244C5.28805 17.7144 5.77933 17.7144 6.08233 17.4244L7.77195 15.8071C8.07495 15.5171 8.07495 15.0469 7.77195 14.7569C7.469 14.4669 6.97772 14.4669 6.67477 14.757Z" fill="#199CFF"/>
<path d="M16.2414 15.3472H9.98274C9.55426 15.3472 9.20688 15.6797 9.20688 16.0898C9.20688 16.4999 9.55426 16.8324 9.98274 16.8324H16.2414C16.6698 16.8324 17.0172 16.4999 17.0172 16.0898C17.0172 15.6797 16.6698 15.3472 16.2414 15.3472Z" fill="#199CFF"/>
<path d="M6.67477 19.0137L5.53374 20.1058L5.25474 19.8388C4.95179 19.5487 4.46052 19.5487 4.15752 19.8388C3.85452 20.1288 3.85452 20.599 4.15752 20.889L4.9851 21.6811C5.28805 21.9711 5.77933 21.9711 6.08233 21.6811L7.77195 20.0638C8.07495 19.7738 8.07495 19.3036 7.77195 19.0136C7.469 18.7236 6.97772 18.7236 6.67477 19.0137Z" fill="#199CFF"/>
<path d="M16.2414 19.6048H9.98274C9.55426 19.6048 9.20688 19.9373 9.20688 20.3475C9.20688 20.7576 9.55426 21.0901 9.98274 21.0901H16.2414C16.6698 21.0901 17.0172 20.7576 17.0172 20.3475C17.0172 19.9373 16.6698 19.6048 16.2414 19.6048Z" fill="#199CFF"/>
<path d="M11.9788 11.9118L14.3785 9.61492V9.70342C14.3785 10.1135 14.7259 10.446 15.1544 10.446C15.5829 10.446 15.9302 10.1135 15.9302 9.70342C15.9302 7.60278 15.9339 7.79835 15.9213 7.71539C15.8665 7.35206 15.541 7.07936 15.1541 7.07946H13.1889C12.7604 7.07946 12.413 7.41195 12.413 7.82207C12.413 8.23218 12.7604 8.56468 13.1889 8.56468H13.2813L11.4302 10.3364L9.08227 8.08909C8.77932 7.79904 8.28804 7.79904 7.98504 8.08909L5.19194 10.7626C4.88894 11.0526 4.88894 11.5228 5.19194 11.8128C5.49489 12.1028 5.98617 12.1028 6.28917 11.8128L8.53368 9.66443L10.8816 11.9118C11.1845 12.2018 11.6759 12.2018 11.9788 11.9118Z" fill="#199CFF"/>
</svg>
