<svg width="23" height="24" viewBox="0 0 23 24" fill="none" xmlns="http://www.w3.org/2000/svg">
<path d="M14.2726 16.282C14.098 16.7667 13.5797 17.0119 13.1155 16.8297C12.3993 16.5487 11.6442 16.4062 10.8711 16.4062H9.52344C6.0061 16.4062 3.14453 19.3922 3.14453 23.0625C3.14453 23.5803 2.7423 24 2.24609 24C1.74989 24 1.34766 23.5803 1.34766 23.0625C1.34766 18.3584 5.0153 14.5312 9.52344 14.5312H10.8711C11.8609 14.5312 12.8288 14.7141 13.7478 15.0746C14.2122 15.2568 14.4472 15.7974 14.2726 16.282ZM16.1719 6.32812C16.1719 9.81745 13.4514 12.6562 10.1074 12.6562C6.76348 12.6562 4.04297 9.81745 4.04297 6.32812C4.04297 2.8388 6.76348 0 10.1074 0C13.4514 0 16.1719 2.8388 16.1719 6.32812ZM14.375 6.32812C14.375 3.87267 12.4606 1.875 10.1074 1.875C7.75428 1.875 5.83984 3.87267 5.83984 6.32812C5.83984 8.78358 7.75428 10.7812 10.1074 10.7812C12.4606 10.7812 14.375 8.78358 14.375 6.32812ZM21.6523 19.9844C21.6523 18.5197 20.4041 17.3281 18.8697 17.3281C18.2175 17.3281 17.7441 16.9995 17.7441 16.5469C17.7441 16.1161 18.0767 15.7656 18.4854 15.7656C18.8974 15.7656 19.4341 15.8125 20.291 16.1602C20.7534 16.3478 21.2741 16.1088 21.454 15.6262C21.6338 15.1437 21.4047 14.6003 20.9423 14.4127C20.4962 14.2317 20.1073 14.113 19.7656 14.0349V13.3125C19.7656 12.7947 19.3634 12.375 18.8672 12.375C18.371 12.375 17.9688 12.7947 17.9688 13.3125V13.9461C16.8161 14.1965 15.9473 15.2674 15.9473 16.5469C15.9473 18.0612 17.2036 19.2031 18.8697 19.2031C19.4041 19.2031 19.8555 19.5609 19.8555 19.9844C19.8555 20.4006 19.4846 20.7657 19.0618 20.7657C18.732 20.7657 17.9043 20.6394 17.0877 20.3007C16.6267 20.1096 16.1043 20.3445 15.921 20.8256C15.7377 21.3067 15.9629 21.8519 16.424 22.0431C16.9443 22.2589 17.4871 22.4129 17.9688 22.5105V23.0625C17.9688 23.5803 18.371 24 18.8672 24C19.3634 24 19.7656 23.5803 19.7656 23.0625V22.539C20.1764 22.4183 20.5561 22.1929 20.8725 21.8747C21.3754 21.369 21.6523 20.6977 21.6523 19.9844Z" fill="#199CFF"/>
</svg>
