<svg width="31" height="26" viewBox="0 0 31 26" fill="none" xmlns="http://www.w3.org/2000/svg">
<g clip-path="url(#clip0_204_698)">
<path d="M26.459 14.2359H23.4245C23.0115 14.2359 22.6117 14.2924 22.2311 14.3962C21.4805 12.9205 19.9479 11.9066 18.1819 11.9066H12.8181C11.0521 11.9066 9.51954 12.9205 8.76888 14.3962C8.38835 14.2924 7.98849 14.2359 7.5755 14.2359H4.54102C2.0371 14.2359 0 16.273 0 18.777V23.6279C0 25.1302 1.22226 26.3525 2.72461 26.3525H28.2754C29.7777 26.3525 31 25.1302 31 23.6279V18.777C31 16.273 28.9629 14.2359 26.459 14.2359ZM8.27706 16.4477V24.5361H2.72461C2.22383 24.5361 1.81641 24.1287 1.81641 23.6279V18.777C1.81641 17.2747 3.03867 16.0524 4.54102 16.0524H7.5755C7.82205 16.0524 8.06079 16.0859 8.28808 16.1476C8.28154 16.2469 8.27706 16.3469 8.27706 16.4477ZM20.9065 24.5361H10.0935V16.4477C10.0935 14.9453 11.3157 13.7231 12.8181 13.7231H18.1819C19.6843 13.7231 20.9065 14.9453 20.9065 16.4477V24.5361ZM29.1836 23.6279C29.1836 24.1287 28.7762 24.5361 28.2754 24.5361H22.7229V16.4477C22.7229 16.3467 22.7185 16.2468 22.7119 16.1475C22.9392 16.0859 23.1779 16.0524 23.4245 16.0524H26.459C27.9613 16.0524 29.1836 17.2746 29.1836 18.777V23.6279Z" fill="#199CFF"/>
<path d="M6.05748 5.65918C3.83245 5.65918 2.02228 7.46935 2.02228 9.69439C2.02222 11.9194 3.83245 13.7296 6.05748 13.7296C8.28246 13.7296 10.0927 11.9194 10.0927 9.69439C10.0927 7.46935 8.28252 5.65918 6.05748 5.65918ZM6.05742 11.9132C4.83395 11.9132 3.83862 10.9179 3.83862 9.69439C3.83862 8.47092 4.83395 7.47559 6.05742 7.47559C7.28089 7.47559 8.27622 8.47092 8.27622 9.69439C8.27622 10.9179 7.28089 11.9132 6.05742 11.9132Z" fill="#199CFF"/>
<path d="M15.4963 0.648926C12.5236 0.648926 10.1053 3.06729 10.1053 6.0399C10.1053 9.01251 12.5236 11.4309 15.4963 11.4309C18.4689 11.4309 20.8872 9.01251 20.8872 6.0399C20.8872 3.06735 18.4689 0.648926 15.4963 0.648926ZM15.4963 9.61447C13.5252 9.61447 11.9217 8.01094 11.9217 6.0399C11.9217 4.06892 13.5252 2.46533 15.4963 2.46533C17.4673 2.46533 19.0708 4.06886 19.0708 6.0399C19.0708 8.01094 17.4673 9.61447 15.4963 9.61447Z" fill="#199CFF"/>
<path d="M24.9421 5.65918C22.7171 5.65918 20.9069 7.46935 20.9069 9.69439C20.9069 11.9194 22.7171 13.7296 24.9421 13.7296C27.1671 13.7296 28.9773 11.9194 28.9773 9.69439C28.9773 7.46935 27.1671 5.65918 24.9421 5.65918ZM24.9421 11.9132C23.7187 11.9132 22.7233 10.9179 22.7233 9.69439C22.7233 8.47092 23.7187 7.47559 24.9421 7.47559C26.1655 7.47559 27.1609 8.47092 27.1609 9.69439C27.1609 10.9179 26.1655 11.9132 24.9421 11.9132Z" fill="#199CFF"/>
</g>
<defs>
<clipPath id="clip0_204_698">
<rect width="31" height="26" fill="white"/>
</clipPath>
</defs>
</svg>
