<svg width="52" height="52" viewBox="0 0 52 52" fill="none" xmlns="http://www.w3.org/2000/svg">
<rect width="52" height="52" rx="3" fill="#FFEAE4"/>
<path d="M37.9687 23.4454H36.1927C36.0148 22.8801 35.7873 22.3317 35.513 21.8064L36.7687 20.5504C37.15 20.1696 37.3641 19.6529 37.3641 19.1141C37.3641 18.5752 37.15 18.0583 36.7687 17.6777L35.3227 16.2311C34.9427 15.8485 34.4254 15.634 33.8864 15.6355C33.3473 15.634 32.8302 15.8483 32.4502 16.2306L31.1938 17.487C30.6685 17.2127 30.1202 16.9852 29.5548 16.8073V15.0309C29.5542 14.4924 29.3399 13.976 28.9588 13.5953C28.5779 13.2145 28.0615 13.0004 27.523 13H25.4769C24.9384 13.0006 24.4221 13.2147 24.0413 13.5953C23.6604 13.9762 23.4462 14.4924 23.4453 15.0309V16.8073C22.8801 16.9852 22.3316 17.2127 21.8064 17.487L20.5504 16.2311C20.1703 15.8485 19.653 15.634 19.114 15.6355C18.575 15.634 18.0576 15.8483 17.6777 16.2306L16.231 17.6773C15.8497 18.0581 15.6357 18.5748 15.6357 19.1136C15.6357 19.6525 15.8497 20.1694 16.231 20.55L17.4874 21.8064C17.2129 22.3317 16.9854 22.8801 16.8075 23.4454H15.0309C14.4924 23.4462 13.9762 23.6605 13.5953 24.0414C13.2147 24.4222 13.0006 24.9385 13 25.4769V27.5231C13.0006 28.0615 13.2147 28.5778 13.5953 28.9586C13.9762 29.3395 14.4924 29.5538 15.0309 29.5546H16.8073C16.9852 30.1199 17.2127 30.6683 17.487 31.1936L16.2311 32.4496C15.8498 32.8304 15.6357 33.3471 15.6357 33.8859C15.6357 34.4248 15.8498 34.9415 16.2311 35.3223L17.6777 36.7685V36.7687C18.0584 37.15 18.5752 37.3641 19.1141 37.3641C19.6529 37.3641 20.1696 37.15 20.5504 36.7687L21.8068 35.5123C22.3321 35.7867 22.8804 36.0141 23.4458 36.192V37.968C23.4462 38.5067 23.6603 39.0231 24.0411 39.4042C24.422 39.7851 24.9383 39.9994 25.4769 40H27.5231C28.0615 39.9994 28.578 39.7853 28.9589 39.4044C29.3397 39.0236 29.554 38.5073 29.5546 37.9687V36.1927C30.1199 36.0148 30.6683 35.7873 31.1936 35.513L32.4496 36.7689C32.8304 37.1502 33.3471 37.3643 33.8859 37.3643C34.4248 37.3643 34.9415 37.1502 35.3223 36.7689L36.7685 35.3223H36.7687C37.15 34.9416 37.3641 34.4248 37.3641 33.8859C37.3641 33.3471 37.15 32.8304 36.7687 32.4496L35.5123 31.1932C35.7867 30.6679 36.0141 30.1196 36.192 29.5542H37.968C38.5067 29.5538 39.0231 29.3397 39.4042 28.9589C39.7851 28.578 39.9994 28.0617 40 27.5231V25.4769C39.9994 24.9385 39.7853 24.422 39.4044 24.0411C39.0236 23.6603 38.5073 23.446 37.9687 23.4454L37.9687 23.4454ZM26.5001 31.6697C25.129 31.6697 23.8142 31.125 22.8447 30.1554C21.8752 29.1859 21.3304 27.8711 21.3304 26.5C21.3304 25.129 21.8751 23.8141 22.8447 22.8446C23.8142 21.8751 25.129 21.3304 26.5001 21.3304C27.8711 21.3304 29.186 21.8751 30.1555 22.8446C31.125 23.8142 31.6697 25.129 31.6697 26.5C31.6683 27.8707 31.1231 29.1847 30.1538 30.1538C29.1847 31.1231 27.8708 31.6682 26.5001 31.6697Z" fill="#EBD0C2"/>
</svg>
