<svg width="52" height="52" viewBox="0 0 52 52" fill="none" xmlns="http://www.w3.org/2000/svg">
<rect width="52" height="52" rx="3" fill="#FEEFF4"/>
<path d="M36.2523 20.1709H37.4864L37.4866 18.3195C37.4873 17.8284 37.2925 17.357 36.9451 17.0099C36.5978 16.6625 36.1264 16.4677 35.6353 16.4684H33.7842V14H32.5499V16.4684H18.9741V14H17.7399V16.4684H15.8517C15.3571 16.4684 14.8826 16.6636 14.5311 17.0114C14.1822 17.3562 13.9903 17.8292 14.0004 18.3195V20.1708L36.2523 20.1709Z" fill="#E8D1D9"/>
<path d="M37.4986 21.4062H14.0126L14.0372 36.8333C14.0365 37.3244 14.2313 37.7957 14.5787 38.1431C14.926 38.4904 15.3973 38.6852 15.8885 38.6846H35.6719C36.1665 38.6843 36.6411 38.4893 36.9926 38.1416C37.3414 37.7968 37.5334 37.3237 37.5233 36.8332L37.4986 21.4062ZM30.0815 24.1832C30.0809 24.101 30.1131 24.022 30.171 23.9641C30.2292 23.906 30.3081 23.8737 30.3901 23.8746H33.4755C33.5575 23.8737 33.6365 23.906 33.6946 23.9641C33.7525 24.022 33.7848 24.101 33.7842 24.1832V27.2686C33.7848 27.3506 33.7525 27.4296 33.6946 27.4875C33.6365 27.5456 33.5575 27.5779 33.4755 27.577H30.3901C30.3081 27.5779 30.2292 27.5456 30.171 27.4875C30.1131 27.4296 30.0809 27.3506 30.0815 27.2686V24.1832ZM23.9107 24.1832C23.9101 24.101 23.9423 24.022 24.0002 23.9641C24.0584 23.906 24.1373 23.8737 24.2193 23.8746H27.3047C27.3867 23.8737 27.4657 23.906 27.5238 23.9641C27.5817 24.022 27.614 24.101 27.6134 24.1832V27.2686C27.614 27.3506 27.5817 27.4296 27.5238 27.4875C27.4657 27.5456 27.3867 27.5779 27.3047 27.577H24.2193C24.1373 27.5779 24.0584 27.5456 24.0002 27.4875C23.9423 27.4296 23.9101 27.3506 23.9107 27.2686V24.1832ZM23.9107 30.354C23.9101 30.2718 23.9423 30.1928 24.0002 30.1349C24.0584 30.0768 24.1373 30.0445 24.2193 30.0454H27.3047C27.3867 30.0445 27.4657 30.0768 27.5238 30.1349C27.5817 30.1928 27.614 30.2718 27.6134 30.354V33.4394C27.614 33.5214 27.5817 33.6004 27.5238 33.6583C27.4657 33.7164 27.3867 33.7487 27.3047 33.7478H24.2193C24.1373 33.7487 24.0584 33.7164 24.0002 33.6583C23.9423 33.6004 23.9101 33.5214 23.9107 33.4394V30.354ZM17.7399 24.1832C17.7393 24.101 17.7715 24.022 17.8294 23.9641C17.8876 23.906 17.9665 23.8737 18.0485 23.8746H21.1339C21.2159 23.8737 21.2949 23.906 21.353 23.9641C21.4109 24.022 21.4432 24.101 21.4426 24.1832V27.2686C21.4432 27.3506 21.4109 27.4296 21.353 27.4875C21.2949 27.5456 21.2159 27.5779 21.1339 27.577H18.0485C17.9665 27.5779 17.8876 27.5456 17.8294 27.4875C17.7715 27.4296 17.7393 27.3506 17.7399 27.2686V24.1832ZM17.7399 30.354C17.7393 30.2718 17.7715 30.1928 17.8294 30.1349C17.8876 30.0768 17.9665 30.0445 18.0485 30.0454H21.1339C21.2159 30.0445 21.2949 30.0768 21.353 30.1349C21.4109 30.1928 21.4432 30.2718 21.4426 30.354V33.4394C21.4432 33.5214 21.4109 33.6004 21.353 33.6583C21.2949 33.7164 21.2159 33.7487 21.1339 33.7478H18.0485C17.9665 33.7487 17.8876 33.7164 17.8294 33.6583C17.7715 33.6004 17.7393 33.5214 17.7399 33.4394V30.354Z" fill="#E8D1D9"/>
</svg>
