<svg width="52" height="52" viewBox="0 0 52 52" fill="none" xmlns="http://www.w3.org/2000/svg">
<rect width="52" height="52" rx="3" fill="#DFFBEC"/>
<path d="M35.0833 15.9453H17.9167C16.8334 15.9453 15.9444 16.8343 15.9444 17.9176V35.112C15.9444 36.1953 16.8334 37.0843 17.9167 37.0843H35.1111C36.1944 37.0843 37.0834 36.1953 37.0834 35.112L37.0832 17.9176C37.0555 16.8343 36.1665 15.9453 35.0832 15.9453H35.0833ZM31.1389 24.7508L25.9167 29.973C25.7221 30.1676 25.4722 30.2509 25.2222 30.2509C24.9723 30.2509 24.7223 30.1676 24.5278 29.973L21.861 27.3063C21.4722 26.9174 21.4722 26.3063 21.861 25.9174C22.2499 25.5285 22.861 25.5285 23.2499 25.9174L25.2222 27.8897L29.75 23.3619C30.1389 22.973 30.75 22.973 31.1389 23.3619C31.5278 23.7508 31.5278 24.3619 31.1389 24.7508L31.1389 24.7508Z" fill="#CCEBDB"/>
<path d="M36.2222 14H17.3056C15.4722 14 14 15.4722 14 17.3056V35.6944C14 37.5278 15.4722 39 17.3056 39H35.6944C37.5278 39 39 37.5278 39 35.6944V16.7778C39 15.25 37.7501 14 36.2222 14L36.2222 14ZM37.8889 35.6944C37.8889 36.9166 36.9166 37.8887 35.6946 37.8887L17.3058 37.8889C16.0835 37.8889 15.1113 36.9166 15.1113 35.6944V17.3055C15.1113 16.0833 16.0836 15.111 17.3058 15.111H36.2224C37.139 15.111 37.8891 15.861 37.8891 16.7778L37.8889 35.6944Z" fill="#CCEBDB"/>
</svg>
