<svg width="52" height="52" viewBox="0 0 52 52" fill="none" xmlns="http://www.w3.org/2000/svg">
<rect width="52" height="52" rx="3" fill="#E7E9F5"/>
<path d="M25.5 14C18.6094 14 13 19.6094 13 26.5C13 33.3906 18.6094 39 25.5 39C32.3946 39 38 33.3906 38 26.5C38 19.6094 32.3946 14 25.5 14ZM32.0116 28.504H24.6094C24.1094 28.504 23.7031 28.0977 23.7031 27.5977V18.8946C23.7031 18.3946 24.1094 17.9883 24.6094 17.9883C25.1093 17.9883 25.5157 18.3946 25.5157 18.8946V26.6915H32.0117C32.5116 26.6915 32.9179 27.0978 32.9179 27.5978C32.9179 28.0979 32.5116 28.5041 32.0117 28.5041L32.0116 28.504Z" fill="#ADB3D5"/>
</svg>
